<svg width="48" height="48" viewBox="0 0 48 48" fill="none" xmlns="http://www.w3.org/2000/svg">
<circle cx="24" cy="24" r="24" fill="black"/>
<g clip-path="url(#clip0_116_608)">
<path d="M36 19.99C36 18.854 35.369 17.813 34.271 17.183L26.515 13.641C24.988 12.762 23.013 12.763 21.525 13.62L13.729 17.184C13.715 17.191 13.701 17.198 13.688 17.205C12.631 17.813 12.001 18.854 12.001 19.99C12.001 21.126 12.632 22.167 13.73 22.797L16.001 23.834V30.017C16.001 31.947 17.196 33.648 18.975 34.25C20.446 34.748 22.137 35 24.001 35C25.865 35 27.557 34.748 29.027 34.25C30.805 33.647 32.001 31.946 32.001 30.017V23.833L34.313 22.776C34.568 22.629 34.798 22.455 35.001 22.263V32.501C35.001 32.777 35.225 33.001 35.501 33.001C35.777 33.001 36.001 32.777 36.001 32.501V20.001C36.001 20.001 36.001 19.999 36.001 19.998C36.001 19.996 36.001 19.993 36.001 19.991L36 19.99ZM31 30.016C31 31.517 30.078 32.837 28.706 33.302C27.339 33.765 25.755 33.999 24 33.999C22.245 33.999 20.661 33.765 19.294 33.302C17.922 32.837 17 31.517 17 30.016V24.29L21.484 26.337C22.253 26.779 23.134 26.999 24.01 26.999C24.875 26.999 25.735 26.784 26.474 26.358L30.999 24.289L31 30.016ZM33.855 21.886L26.017 25.47C24.79 26.176 23.206 26.176 21.941 25.449L14.185 21.908C13.432 21.474 12.999 20.775 12.999 19.99C12.999 19.212 13.424 18.517 14.166 18.083L21.981 14.509C23.208 13.802 24.792 13.804 26.057 14.53L33.813 18.072C34.566 18.506 34.999 19.205 34.999 19.99C34.999 20.775 34.567 21.474 33.855 21.886Z" fill="white"/>
</g>
<defs>
<clipPath id="clip0_116_608">
<rect width="24" height="24" fill="white" transform="translate(12 12)"/>
</clipPath>
</defs>
</svg>
