<svg width="48" height="48" viewBox="0 0 48 48" fill="none" xmlns="http://www.w3.org/2000/svg">
<circle cx="24" cy="24" r="24" fill="black"/>
<g clip-path="url(#clip0_116_625)">
<path d="M24.039 12.002C24.026 12.002 24.013 12 24 12C23.995 12 23.991 12 23.986 12C23.984 12 23.983 12 23.981 12C17.373 12.011 12 17.39 12 24C12 30.61 17.383 36 24 36C30.617 36 36 30.617 36 24C36 17.383 30.638 12.023 24.039 12.002ZM33.786 19H28.972C27.905 16.331 26.26 14.219 25.241 13.075C28.975 13.496 32.142 15.794 33.787 19H33.786ZM29 24C29 25.407 28.708 26.753 28.269 28H19.731C19.292 26.753 19 25.407 19 24C19 22.593 19.292 21.246 19.73 20H28.269C28.708 21.247 29 22.593 29 24ZM27.878 29C26.649 31.838 24.762 33.99 24 34.788C23.238 33.99 21.351 31.838 20.122 29H27.877H27.878ZM20.121 19C21.35 16.159 23.238 14.008 24 13.211C24.762 14.009 26.649 16.161 27.878 19H20.121ZM22.757 13.075C21.732 14.225 20.089 16.339 19.027 19H14.214C15.859 15.795 19.024 13.498 22.757 13.075ZM13.764 20H18.668C18.265 21.247 18 22.589 18 24C18 25.411 18.265 26.752 18.669 28H13.764C13.277 26.758 13 25.412 13 24C13 22.588 13.277 21.242 13.764 20ZM14.214 29H19.029C20.096 31.669 21.741 33.781 22.76 34.925C19.026 34.504 15.859 32.206 14.214 29ZM25.24 34.925C26.259 33.781 27.904 31.668 28.971 29H33.785C32.14 32.206 28.974 34.504 25.24 34.925ZM34.236 28H29.331C29.735 26.752 30 25.411 30 24C30 22.589 29.735 21.248 29.331 20H34.236C34.723 21.242 35 22.588 35 24C35 25.412 34.723 26.758 34.236 28Z" fill="white"/>
</g>
<defs>
<clipPath id="clip0_116_625">
<rect width="24" height="24" fill="white" transform="translate(12 12)"/>
</clipPath>
</defs>
</svg>
