<svg width="599" height="160" viewBox="0 0 599 160" fill="none" xmlns="http://www.w3.org/2000/svg">
<path d="M524.023 31.2343C525.644 31.2324 527.266 31.2348 528.888 31.2381C529.266 31.9924 529.266 31.9924 529.65 32.7619C530.153 32.259 530.656 31.7562 531.175 31.2381C533.334 31.0951 535.418 31.0434 537.578 31.0625C538.213 31.0628 538.848 31.0632 539.503 31.0635C540.847 31.0658 542.192 31.0718 543.537 31.0813C545.596 31.0951 547.654 31.0969 549.713 31.0967C551.019 31.1004 552.324 31.1049 553.629 31.1101C554.246 31.1109 554.863 31.1118 555.499 31.1127C557.997 31.1338 560.033 31.2046 562.42 32C562.368 32.4543 562.316 32.9087 562.262 33.3768C561.738 38.2117 561.504 43.0025 561.417 47.8631C561.393 48.9884 561.393 48.9884 561.369 50.1365C561.32 52.5037 561.274 54.8709 561.229 57.2381C561.196 58.8552 561.163 60.4722 561.13 62.0893C561.049 66.0277 560.971 69.9662 560.896 73.9048C559.89 74.1562 558.884 74.4076 557.848 74.6667C555.988 71.78 556.002 68.7817 555.868 65.4554C555.838 64.8599 555.808 64.2644 555.777 63.6509C555.683 61.7517 555.598 59.8521 555.514 57.9524C555.425 56.0555 555.335 54.1587 555.242 52.262C555.184 51.0834 555.13 49.9047 555.079 48.7258C554.942 45.8323 554.609 43.241 554.037 40.3809C554.037 51.9467 554.037 63.5124 554.037 75.4286C552.528 76.1829 552.528 76.1829 550.989 76.9524C548.692 74.6566 549.036 71.9503 548.842 68.8542C548.796 68.1961 548.749 67.5381 548.701 66.8601C548.552 64.7484 548.413 62.6362 548.274 60.5238C548.131 58.4306 547.985 56.3376 547.839 54.2446C547.748 52.9421 547.66 51.6395 547.574 50.3368C547.298 46.2399 546.894 42.1736 546.416 38.0952C545.913 38.0952 545.41 38.0952 544.892 38.0952C544.892 43.6267 544.892 49.1581 544.892 54.8571C543.886 55.1086 542.88 55.36 541.844 55.619C541.844 55.1162 541.844 54.6133 541.844 54.0952C541.089 53.8438 540.335 53.5924 539.558 53.3333C539.039 52.689 538.52 52.0448 537.986 51.3809C534.803 48.7408 532.107 49.1761 528.126 49.5238C528.173 50.2467 528.221 50.9695 528.269 51.7143C528.198 52.8929 528.198 52.8929 528.126 54.0952C527.372 54.5981 526.617 55.101 525.84 55.619C525.435 55.2429 525.03 54.8667 524.613 54.4792C524.075 53.991 523.537 53.5029 522.982 53C522.452 52.5138 521.921 52.0277 521.375 51.5268C518.695 49.4881 517.175 49.4678 513.837 49.8571C513.02 49.9986 512.202 50.14 511.36 50.2857C510.85 45.5629 512.694 41.6333 514.409 37.3333C513.151 37.5847 511.894 37.8362 510.598 38.0952C509.637 42.2265 509.561 46.3716 509.363 50.5952C509.099 53.0976 508.621 54.8875 507.55 57.1429C506.544 56.8914 505.538 56.64 504.502 56.381C504.207 52.8275 503.961 49.273 503.739 45.7143C503.679 44.8618 503.618 44.0093 503.555 43.1309C503.522 42.3492 503.488 41.5674 503.454 40.7619C503.398 39.713 503.398 39.713 503.341 38.6428C503.907 35.7039 505.141 33.7244 507.55 32C509.904 31.3478 512.167 31.3257 514.599 31.3333C515.215 31.3176 515.831 31.3019 516.466 31.2857C518.985 31.2293 521.503 31.2391 524.023 31.2343ZM528.126 35.0476C528.126 38.5676 528.126 42.0876 528.126 45.7143C530.523 42.5196 530.884 41.8678 530.412 38.0952C529.658 37.0895 528.904 36.0838 528.126 35.0476ZM520.505 37.3333C518.296 39.1581 517.837 40.619 517.457 43.4286C519.217 43.9314 520.978 44.4343 522.792 44.9524C522.705 43.8247 522.608 42.6978 522.506 41.5714C522.426 40.63 522.426 40.63 522.345 39.6696C522.241 39.1501 522.137 38.6305 522.03 38.0952C521.527 37.8438 521.024 37.5924 520.505 37.3333ZM536.509 38.0952C535.755 39.6038 535 41.1124 534.223 42.6667C536.864 44.1752 536.864 44.1752 539.558 45.7143C539.644 41.8415 539.644 41.8415 538.795 38.0952C538.041 38.0952 537.287 38.0952 536.509 38.0952Z" fill="black"/>
<path d="M37.1517 16.2381C44.148 17.7177 49.1036 22.5981 54.1081 27.4286C54.6848 27.954 55.2614 28.4795 55.8556 29.0208C57.1565 30.4762 57.1565 30.4762 57.1565 32.7619C56.6535 32.7619 56.1505 32.7619 55.6323 32.7619C56.0095 38.0419 56.0095 38.0419 56.3944 43.4286C57.4003 41.4171 58.4063 39.4057 59.4427 37.3333C58.9398 37.3333 58.4368 37.3333 57.9186 37.3333C58.3003 34.5091 58.7089 33.0231 60.9669 31.2381C62.4157 30.9786 62.4157 30.9786 64.0242 31.0149C64.6013 31.0222 65.1785 31.0296 65.7731 31.0372C66.3719 31.0564 66.9706 31.0755 67.5875 31.0952C68.4989 31.1107 68.4989 31.1107 69.4287 31.1265C70.9268 31.1534 72.4247 31.1944 73.9224 31.2381C73.7966 31.9295 73.6709 32.621 73.5413 33.3333C72.8677 37.4051 72.8677 37.4051 74.6844 40.9524C75.4389 41.8009 75.4389 41.8009 76.2086 42.6667C76.2086 40.9067 76.2086 39.1467 76.2086 37.3333C75.7056 37.0819 75.2027 36.8305 74.6844 36.5714C76.8754 32.0952 76.8754 32.0952 77.7328 31.2381C79.6322 31.1417 81.5011 31.097 83.4008 31.0952C83.9298 31.0859 84.4588 31.0766 85.0039 31.067C86.3918 31.0629 87.7793 31.1454 89.1641 31.2381C89.9185 31.9924 89.9185 31.9924 90.6882 32.7619C89.6823 34.7733 88.6763 36.7848 87.6399 38.8571C86.6339 38.8571 85.628 38.8571 84.5916 38.8571C83.8371 38.1029 83.8371 38.1029 83.0674 37.3333C82.8159 43.3676 82.5644 49.4019 82.3053 55.619C78.4949 55.619 78.4949 55.619 77.0302 54.2202C76.5705 53.5818 76.1107 52.9435 75.6371 52.2857C72.4969 48.0918 69.0835 44.2359 65.5394 40.381C64.7849 40.8838 64.0305 41.3867 63.2532 41.9048C63.7217 42.1906 64.1903 42.4764 64.6731 42.7708C71.1367 46.8624 71.1367 46.8624 72.3982 50.2857C72.16 52.0476 72.16 52.0476 71.6361 53.3333C69.5035 53.0175 68.6405 52.6225 67.0636 51.0952C63.9601 48.7246 63.9601 48.7246 55.6323 48C55.6323 57.3029 55.6323 66.6057 55.6323 76.1905C52.584 75.4286 52.584 75.4286 51.0598 73.9048C50.7666 72.005 50.5594 70.1678 50.4108 68.2559C50.3379 67.4221 50.3379 67.4221 50.2636 66.5714C50.1097 64.7941 49.9655 63.0162 49.8214 61.2381C49.7188 60.0337 49.6156 58.8293 49.5118 57.625C49.2585 54.6712 49.0138 51.7168 48.7735 48.7619C48.3197 49.0182 47.8658 49.2746 47.3982 49.5387C45.0885 50.57 43.5696 50.1016 41.1527 49.5238C40.6497 49.2724 40.1467 49.021 39.6285 48.7619C39.88 49.5162 40.1315 50.2705 40.3906 51.0476C40.4207 52.8251 40.4241 54.6035 40.3906 56.381C39.2589 56.7581 39.2589 56.7581 38.1043 57.1429C36.6814 56.1042 36.6814 56.1042 35.1512 54.619C32.8825 52.5093 31.0949 51.3934 28.1972 50.2857C27.197 48.6667 27.197 48.6667 26.673 47.2381C27.4275 46.2324 28.182 45.2267 28.9593 44.1905C33.4365 44.8571 33.4365 44.8571 34.2939 45.7143C34.3135 45.2173 34.3332 44.7204 34.3534 44.2083C34.684 39.1158 35.5757 35.8234 39.4886 32.2649C41.5251 31.0083 42.6904 31.0227 45.0584 31.1429C47.785 31.3336 47.785 31.3336 50.2977 30.4762C45.4046 25.7529 38.6178 24.1178 32.0076 23.619C31.7561 22.8648 31.5047 22.1105 31.2455 21.3333C34.0399 17.0159 34.0399 17.0159 37.1517 16.2381ZM42.6768 37.3333C40.9858 38.7236 40.9858 38.7236 40.8669 40.7143C40.9839 42.7415 40.9839 42.7415 42.4387 44.1429C44.222 45.196 44.222 45.196 46.2967 44.3333C46.8626 44.0348 47.4284 43.7362 48.0114 43.4286C48.0114 41.6686 48.0114 39.9086 48.0114 38.0952C45.4179 37.5796 45.4179 37.5796 42.6768 37.3333Z" fill="black"/>
<path d="M342.939 18.2857C343.693 18.5371 344.448 18.7885 345.225 19.0476C344.984 21.3006 344.511 22.0499 342.835 23.6309C339.757 25.7635 336.594 26.4129 333.002 27.3333C330.553 28.2634 329.765 29.0158 328.459 31.238C329.258 31.238 330.056 31.238 330.879 31.238C334.645 31.238 338.411 31.238 342.177 31.238C342.993 31.2301 343.809 31.2221 344.651 31.2139C347.329 31.1879 350.006 31.1689 352.685 31.1543C353.841 31.1466 354.998 31.1362 356.155 31.1231C357.823 31.1047 359.492 31.096 361.16 31.0892C362.159 31.0813 363.159 31.0733 364.188 31.0651C366.563 31.238 366.563 31.238 368.088 32.7619C367.082 34.7733 366.076 36.7847 365.039 38.8571C364.033 38.8571 363.027 38.8571 361.991 38.8571C360.657 36.9523 360.657 36.9523 359.705 35.0476C358.95 36.179 358.95 36.179 358.18 37.3333C355.538 38.2138 353.195 38.3454 350.417 38.5238C348.962 38.6195 348.962 38.6195 347.478 38.7172C346.735 38.7634 345.991 38.8095 345.225 38.8571C344.848 39.9885 344.848 39.9885 344.463 41.1428C344.887 41.1536 345.312 41.1644 345.749 41.1755C351.226 41.5178 355.023 43.1374 358.788 47.1874C360.907 49.8557 362.534 52.1124 362.753 55.619C361.621 55.9961 361.621 55.9961 360.467 56.3809C358.85 55.3422 358.85 55.3422 357.085 53.8571C350.74 48.5652 348.981 49.5238 339.128 49.5238C339.128 58.0723 339.128 66.6209 339.128 75.4285C337.619 76.1828 337.619 76.1828 336.08 76.9523C333.817 74.6898 334.13 72.0977 333.934 69.0475C333.887 68.4082 333.84 67.7689 333.792 67.1102C333.643 65.058 333.504 63.0053 333.365 60.9523C333.222 58.9251 333.077 56.8979 332.931 54.8708C332.838 53.5701 332.746 52.2692 332.654 50.9683C332.349 46.6676 331.976 42.3816 331.507 38.0952C331.004 38.0952 330.501 38.0952 329.983 38.0952C329.983 43.6266 329.983 49.158 329.983 54.8571C326.935 54.8571 326.935 54.8571 325.571 53.6904C325.11 53.1954 324.648 52.7004 324.172 52.1904C321.644 49.8198 320.123 49.156 316.647 49.1904C315.501 49.2749 314.356 49.3767 313.217 49.5238C313.884 44.2857 313.884 44.2857 314.742 43.4285C314.841 40.8426 314.861 38.5628 314.218 36.0476C313.979 34.2857 313.979 34.2857 314.742 32.5238C316.967 30.6462 318.786 31.0257 321.6 31.238C317.561 27.6609 314.693 27.3056 309.407 27.4285C309.651 25.2289 310.126 23.6959 311.217 21.7619C314.155 20.0134 316.335 20.6785 319.588 21.3958C322.4 22.3731 323.623 23.5628 325.411 25.9047C325.804 25.3076 326.197 24.7104 326.601 24.0952C329.963 20.476 334.421 20.3996 339.116 20.0714C340.888 19.8765 340.888 19.8765 342.939 18.2857ZM339.128 37.3333C339.128 38.8419 339.128 40.3504 339.128 41.9047C339.38 41.9047 339.631 41.9047 339.89 41.9047C340.142 40.3961 340.393 38.8876 340.652 37.3333C340.149 37.3333 339.646 37.3333 339.128 37.3333ZM321.6 38.0952C320.846 39.6038 320.091 41.1123 319.314 42.6666C321.955 44.1752 321.955 44.1752 324.649 45.7142C324.397 43.1999 324.146 40.6857 323.887 38.0952C323.132 38.0952 322.378 38.0952 321.6 38.0952Z" fill="black"/>
<path d="M282.639 31.6458C285.062 32.1757 287.321 31.8718 289.783 31.6666C290.746 31.5891 291.709 31.5115 292.701 31.4315C293.803 31.3358 293.803 31.3358 294.927 31.2381C295.53 33.879 295.774 36.2936 295.737 39C295.73 39.6551 295.723 40.3102 295.716 40.9851C295.707 41.54 295.699 42.0949 295.689 42.6667C295.689 43.1695 295.689 43.6724 295.689 44.1905C296.929 45.2437 298.199 46.2624 299.5 47.2381C299.521 46.1429 299.535 45.0477 299.547 43.9524C299.556 43.3425 299.565 42.7325 299.574 42.1042C299.466 39.5884 299.001 38.3584 297.214 36.5714C297.717 36.5714 298.22 36.5714 298.738 36.5714C298.848 35.9585 298.958 35.3457 299.071 34.7143C299.5 32.7619 299.5 32.7619 300.262 32C302.441 31.8194 304.605 31.6783 306.787 31.5714C307.402 31.5385 308.016 31.5056 308.649 31.4717C310.172 31.3906 311.695 31.3139 313.217 31.2381C313.217 34.5378 312.481 36.0155 310.931 38.8571C309.455 38.619 309.455 38.619 307.883 38.0952C307.506 36.9638 307.506 36.9638 307.121 35.8095C306.618 35.8095 306.115 35.8095 305.597 35.8095C305.597 42.3467 305.597 48.8838 305.597 55.619C302.548 56.381 302.548 56.381 301.024 55.5089C300.521 55.0896 300.018 54.6702 299.5 54.2381C296.16 51.4924 293.764 50.1537 289.402 49.8095C288.722 49.7526 288.043 49.6956 287.342 49.6369C286.57 49.5809 286.57 49.5809 285.782 49.5238C285.657 45.8869 285.657 45.8869 286.783 44.3333C288.069 43.4286 288.069 43.4286 290.355 43.4286C290.355 41.6686 290.355 39.9086 290.355 38.0952C288.343 38.0952 286.331 38.0952 284.258 38.0952C284.34 38.7749 284.421 39.4545 284.505 40.1547C284.597 41.0465 284.688 41.9383 284.782 42.8571C284.879 43.7411 284.977 44.625 285.077 45.5357C285.02 48 285.02 48 284.035 49.8452C282.734 51.0476 282.734 51.0476 280.448 51.0476C277.542 41.5351 277.542 41.5351 279.686 36.5714C279.183 36.5714 278.68 36.5714 278.161 36.5714C278.02 37.7971 278.02 37.7971 277.876 39.0476C277.478 41.4313 277.094 42.9217 275.875 44.9524C274.115 44.9524 272.354 44.9524 270.541 44.9524C270.541 45.7067 270.541 46.4609 270.541 47.2381C271.232 47.4267 271.924 47.6152 272.636 47.8095C275.318 48.8408 276.542 49.4427 278.161 51.8095C278.632 55.4563 278.543 57.127 276.923 60.4286C274.225 63.4805 272.088 64.6452 268.016 64.9524C261.935 62.8915 257.074 56.441 253.775 51.0476C253.775 50.5448 253.775 50.0419 253.775 49.5238C253.272 49.2724 252.769 49.0209 252.251 48.7619C252.754 48.259 253.257 47.7562 253.775 47.2381C255.74 47.5036 257.58 47.9985 259.49 48.5238C261.817 48.8146 263.123 48.2497 265.206 47.2381C265.206 46.7352 265.206 46.2324 265.206 45.7143C262.691 45.4628 260.176 45.2114 257.585 44.9524C258.252 39.7143 258.252 39.7143 259.109 38.8571C260.887 38.8259 262.666 38.8248 264.444 38.8571C264.444 38.3543 264.444 37.8514 264.444 37.3333C262.432 37.3333 260.42 37.3333 258.347 37.3333C259.014 32.8571 259.014 32.8571 259.871 32C261.734 31.8145 263.577 31.6747 265.444 31.5714C265.992 31.5396 266.54 31.5078 267.105 31.475C279.65 30.7931 279.65 30.7931 282.639 31.6458ZM272.065 35.8095C272.065 36.3124 272.065 36.8152 272.065 37.3333C271.31 37.3333 270.556 37.3333 269.779 37.3333C269.779 37.8362 269.779 38.339 269.779 38.8571C271.036 38.8571 272.293 38.8571 273.589 38.8571C273.337 37.8514 273.086 36.8457 272.827 35.8095C272.575 35.8095 272.324 35.8095 272.065 35.8095ZM262.158 53.3333C264.122 55.3505 265.904 57.1004 268.254 58.6667C270.271 58.4288 270.271 58.4288 272.065 57.9048C271.805 55.5037 271.622 54.394 269.826 52.7143C267.026 51.1025 265.069 52.321 262.158 53.3333Z" fill="black"/>
<path d="M464.872 32.7619C465.215 34.3303 465.215 34.3303 465.396 36.1428C465.462 36.739 465.528 37.3352 465.596 37.9494C465.635 39.619 465.635 39.619 464.872 41.9048C465.878 42.1562 466.884 42.4076 467.921 42.6667C467.793 42.2159 467.665 41.7651 467.534 41.3006C465.992 35.3208 465.992 35.3208 467.921 32C472.535 31.2559 472.535 31.2559 474.017 31.2381C474.52 31.7409 475.023 32.2438 475.542 32.7619C475.384 34.6161 475.384 34.6161 474.922 36.9047C474.192 40.7526 473.775 44.4916 473.592 48.4018C473.16 50.8196 472.554 52.2063 470.969 54.0953C468.659 54.6072 468.659 54.6072 466.016 54.6667C462.33 54.7635 462.33 54.7635 458.776 55.6191C459.027 56.1219 459.279 56.6248 459.538 57.1429C462.24 56.078 462.24 56.078 464.872 54.8572C468.012 54.4292 469.241 54.7305 471.969 56.4286C474.017 58.6667 474.017 58.6667 474.97 61.2381C474.703 65.1113 472.964 66.7572 470.207 69.3334C469.688 69.8205 469.17 70.3077 468.635 70.8096C466.778 71.8279 465.434 71.7929 463.348 71.6191C463.628 69.1024 464.21 68.4764 466.111 66.6667C466.708 66.0381 467.305 65.4096 467.921 64.7619C467.886 63.0284 467.886 63.0284 467.159 61.7143C466.404 61.7143 465.65 61.7143 464.872 61.7143C465.375 62.9715 465.878 64.2286 466.397 65.5238C465.158 66.0953 465.158 66.0953 463.348 66.2858C462.688 65.8143 462.028 65.3429 461.348 64.8572C457.981 62.7379 455.06 62.6305 451.155 62.4762C451.502 60.1138 452.006 58.5031 453.155 56.381C454.353 53.7685 454.08 52.9806 453.441 50.2857C454.203 48.6191 454.203 48.6191 454.965 47.2381C454.714 46.7352 454.462 46.2324 454.203 45.7143C453.449 46.4686 452.694 47.2229 451.917 48C451.162 47.7486 450.408 47.4971 449.631 47.2381C447.746 43.47 447.796 39.8116 448.869 35.8095C450.892 33.1994 452.427 32.132 455.704 31.7053C457.036 31.5919 457.036 31.5919 458.395 31.4762C459.283 31.3946 460.171 31.3131 461.086 31.2291C463.348 31.2381 463.348 31.2381 464.872 32.7619ZM452.679 38.0952C453.182 39.1009 453.685 40.1067 454.203 41.1428C454.711 42.1587 455.219 43.1746 455.727 44.1905C456.23 43.4362 456.733 42.6819 457.252 41.9048C458.006 41.6533 458.76 41.4019 459.538 41.1428C459.538 40.1371 459.538 39.1314 459.538 38.0952C457.274 38.0952 455.011 38.0952 452.679 38.0952Z" fill="black"/>
<path d="M120.882 30.7935C121.98 30.789 123.078 30.8054 124.175 30.8393C124.758 30.8428 125.34 30.8464 125.94 30.8501C127.797 30.8664 129.651 30.9095 131.508 30.9524C132.759 30.9649 134.011 30.9759 135.263 30.9851C144.345 31.0875 144.345 31.0875 147.083 32C146.658 34.5476 146.053 36.5966 144.796 38.8571C143.79 38.6057 142.785 38.3543 141.748 38.0952C141.497 50.4152 141.245 62.7352 140.986 75.4285C139.98 75.9314 138.974 76.4342 137.938 76.9523C135.708 74.7235 135.991 72.2447 135.791 69.241C135.745 68.6204 135.698 67.9998 135.65 67.3604C135.501 65.3677 135.362 63.3744 135.223 61.3809C135.127 60.0639 135.03 58.7469 134.932 57.43C134.791 55.5155 134.65 53.601 134.512 51.6863C134.184 47.1506 133.808 42.6213 133.365 38.0952C132.862 38.0952 132.359 38.0952 131.841 38.0952C131.841 43.6266 131.841 49.1581 131.841 54.8571C130.835 55.1085 129.829 55.36 128.793 55.619C128.793 55.1162 128.793 54.6133 128.793 54.0952C128.038 53.8438 127.284 53.5924 126.506 53.3333C126.506 52.8304 126.506 52.3276 126.506 51.8095C125.799 51.4559 125.799 51.4559 125.077 51.0952C124.03 50.5714 122.982 50.0476 121.934 49.5238C120.506 49.4702 119.076 49.4595 117.647 49.4762C116.501 49.4865 116.501 49.4865 115.331 49.497C114.45 49.5103 114.45 49.5103 113.551 49.5238C114.054 49.2724 114.557 49.0209 115.075 48.7619C115.36 47.2435 115.614 45.7191 115.837 44.1904C116.089 43.939 116.34 43.6876 116.599 43.4285C116.782 40.2033 116.847 37.8153 115.075 35.0476C116.796 32.2248 117.549 31.3307 120.882 30.7935ZM123.458 38.0952C122.704 39.6038 121.949 41.1124 121.172 42.6666C122.28 42.9966 122.28 42.9966 123.41 43.3333C125.744 44.1904 125.744 44.1904 126.506 45.7143C126.593 41.8415 126.593 41.8415 125.744 38.0952C124.99 38.0952 124.235 38.0952 123.458 38.0952Z" fill="black"/>
<path d="M225.578 31.2381C235.134 31.2381 244.691 31.2381 254.537 31.2381C255.598 34.4197 254.402 35.9122 253.013 38.8572C252.007 38.8572 251.001 38.8572 249.965 38.8572C249.587 38.1029 249.587 38.1029 249.203 37.3333C248.951 50.1562 248.7 62.9791 248.44 76.1905C246.931 76.5677 246.931 76.5677 245.392 76.9524C244.63 76.1905 244.63 76.1905 244.556 74.7828C244.58 73.2203 244.605 71.6578 244.63 70.0953C244.127 69.8439 243.624 69.5924 243.106 69.3334C243.124 68.802 243.141 68.2707 243.159 67.7233C243.329 57.8146 242.385 47.9632 241.582 38.0952C240.827 38.0952 240.073 38.0952 239.295 38.0952C239.336 38.7697 239.336 38.7697 239.377 39.4578C239.498 41.4954 239.611 43.5334 239.724 45.5714C239.767 46.2791 239.81 46.9867 239.854 47.7158C239.89 48.3959 239.927 49.0761 239.965 49.7768C240.001 50.4032 240.037 51.0297 240.074 51.6751C240.057 53.3334 240.057 53.3334 239.295 55.6191C236.521 55.1853 235.39 54.1496 233.484 52.1429C230.956 49.8054 229.41 49.1612 225.959 49.1905C224.813 49.275 223.669 49.3768 222.529 49.5238C223.196 45.0476 223.196 45.0476 224.054 44.1905C224.93 40.6398 224.93 40.6398 223.958 37.2857C223.738 36.7986 223.518 36.3114 223.292 35.8095C224.046 34.301 224.8 32.7924 225.578 31.2381ZM231.675 38.0952C230.543 39.981 230.543 39.981 229.388 41.9048C231.137 43.8276 232.258 44.482 234.723 45.7143C234.471 43.4514 234.22 41.1886 233.961 38.8572C233.206 38.6057 232.452 38.3543 231.675 38.0952Z" fill="black"/>
<path d="M485.217 31.1369C485.888 31.1359 486.559 31.1349 487.25 31.1339C487.945 31.1368 488.64 31.1398 489.355 31.1428C490.056 31.1399 490.756 31.1369 491.478 31.1339C492.147 31.1349 492.816 31.1359 493.505 31.1369C494.116 31.1377 494.727 31.1386 495.357 31.1395C496.881 31.2381 496.881 31.2381 498.405 32C499.922 31.9259 499.922 31.9259 501.549 31.6666C502.523 31.5252 503.498 31.3838 504.502 31.2381C504.502 34.5378 503.766 36.0155 502.215 38.8571C499.724 38.4276 498.538 37.7145 496.881 35.8095C496.629 36.3123 496.378 36.8152 496.119 37.3333C494.547 37.8095 494.547 37.8095 493.07 38.0952C492.759 40.7405 492.946 41.7266 494.499 43.9523C499.958 52.4599 498.555 66.4333 498.405 76.1904C496.896 76.5676 496.896 76.5676 495.357 76.9523C493.776 74.5817 493.54 73.5246 493.21 70.7708C493.115 70.0082 493.021 69.2455 492.923 68.4598C492.83 67.6638 492.737 66.8677 492.642 66.0476C492.451 64.479 492.259 62.9106 492.067 61.3422C491.979 60.6109 491.89 59.8796 491.799 59.1261C491.519 56.93 491.178 54.75 490.784 52.5714C490.045 53.2157 489.307 53.86 488.545 54.5238C486.222 56.1855 484.731 56.6553 481.877 56.4285C479.742 56.0285 478.553 55.5953 476.685 54.4285C475.108 51.8665 474.626 49.4419 474.78 46.4762C475.797 43.7817 476.902 41.2242 479.353 39.619C481.395 39.2057 483.364 39.028 485.449 38.8571C484.182 37.5897 482.567 37.8206 480.829 37.6666C480.129 37.6028 479.428 37.539 478.707 37.4732C478.165 37.427 477.624 37.3809 477.066 37.3333C477.733 33.7143 477.733 33.7143 478.591 32C480.805 31.2282 482.887 31.1401 485.217 31.1369ZM480.877 46.4762C480.877 47.7333 480.877 48.9904 480.877 50.2857C482.191 51.0133 482.191 51.0133 483.925 51.0476C486.037 49.2539 486.037 49.2539 487.736 47.2381C486.345 45.516 486.345 45.516 484.306 45.5714C482.403 45.5931 482.403 45.5931 480.877 46.4762Z" fill="black"/>
<path d="M101.357 16.7619C103.177 17.8671 104.401 19.0428 105.93 20.5714C105.93 21.0743 105.93 21.5771 105.93 22.0952C106.433 22.0952 106.936 22.0952 107.454 22.0952C108.523 23.4613 108.523 23.4613 109.693 25.2857C110.095 25.9084 110.496 26.5311 110.91 27.1726C112.07 29.0214 113.217 30.8746 114.313 32.7619C113.841 32.809 113.37 32.8562 112.884 32.9047C112.35 33.109 111.815 33.3133 111.265 33.5238C111.029 34.1524 110.793 34.7809 110.55 35.4286C110.149 36.3714 110.149 36.3714 109.74 37.3333C107.835 38 107.835 38 105.93 38.0952C105.427 37.8438 104.924 37.5924 104.406 37.3333C104.406 39.3447 104.406 41.3562 104.406 43.4286C104.83 43.4914 105.255 43.5543 105.692 43.619C110.706 45.2447 112.618 49.2441 115.045 53.5952C115.889 55.7516 115.921 56.5566 115.075 58.6667C113.232 58.372 112.262 58.157 110.97 56.7708C110.479 56.0828 110.479 56.0828 109.979 55.3809C107.273 52.1436 104.746 50.4392 100.595 49.5238C96.2795 49.1928 91.9596 49.3453 87.6399 49.5238C88.2531 44.369 88.2531 44.369 89.5927 42.7619C92.2379 41.5413 94.646 41.3845 97.547 41.1428C97.1758 39.5702 97.1758 39.5702 96.0228 38.0952C93.3082 37.4715 93.3082 37.4715 90.6882 37.3333C90.9264 35.1428 90.9264 35.1428 91.4503 32.7619C93.8533 31.1603 94.3927 31.0526 97.1272 31.0893C98.0961 31.0966 98.0961 31.0966 99.0846 31.1042C100.092 31.1233 100.092 31.1233 101.119 31.1428C102.14 31.1532 102.14 31.1532 103.181 31.1637C104.859 31.1816 106.538 31.2067 108.216 31.2381C107.361 30.3627 106.503 29.4903 105.644 28.619C105.167 28.1329 104.689 27.6467 104.197 27.1458C102.945 25.8447 102.945 25.8447 101.357 25.1428C101.295 25.5986 101.232 26.0543 101.167 26.5238C100.394 28.7776 99.6782 29.4108 97.547 30.4762C94.9169 30.3839 92.9984 30.1959 90.7358 28.8095C89.4456 26.609 89.4902 25.3749 89.9261 22.8571C92.8897 18.3011 95.7115 16.0978 101.357 16.7619ZM96.0228 22.0952C95.7713 22.8495 95.5198 23.6038 95.2607 24.3809C96.7697 24.1295 98.2786 23.8781 99.8332 23.619C97.7936 21.9543 97.7936 21.9543 96.0228 22.0952Z" fill="black"/>
<path d="M209.574 16.7619C212.959 19.0218 215.09 21.8583 217.385 25.1428C217.725 25.6123 218.065 26.0818 218.415 26.5655C220.044 28.8643 221.202 30.7695 221.767 33.5238C221.013 33.7752 220.258 34.0267 219.481 34.2857C219.277 34.7886 219.072 35.2914 218.862 35.8095C217.957 37.3333 217.957 37.3333 215.671 37.9524C213.384 38.0952 213.384 38.0952 211.86 37.3333C211.88 39.8959 211.88 39.8959 212.622 42.6667C214.7 44.2639 214.7 44.2639 217.195 45.7143C220.544 48.9842 223.172 52.1723 223.387 57C223.355 57.55 223.324 58.1 223.291 58.6667C221.009 58.4097 219.794 58.2119 218.129 56.5774C217.319 55.4985 216.509 54.4191 215.7 53.3393C212.715 50.4008 209.541 49.4125 205.457 49.3006C204.305 49.3155 203.152 49.3425 202.001 49.3809C201.407 49.3913 200.813 49.4016 200.201 49.4122C198.753 49.4388 197.304 49.4798 195.856 49.5238C195.66 45.1726 195.66 45.1726 197.428 43.1905C200.028 41.6975 202.022 41.3115 205.001 41.1428C205.504 41.3943 206.007 41.6457 206.526 41.9048C205.756 39.943 205.756 39.943 204.239 38.0952C201.496 37.4126 201.496 37.4126 198.905 37.3333C198.809 35.5238 198.809 35.5238 198.905 33.5238C201.183 31.2461 203.796 31.6452 206.859 31.5238C207.451 31.4943 208.043 31.4649 208.653 31.4345C210.994 31.3216 213.327 31.2381 215.671 31.2381C214.885 29.2735 214.44 28.3594 212.575 27.2857C212.087 27.0814 211.6 26.8771 211.098 26.6666C210.847 26.4152 210.595 26.1638 210.336 25.9047C209.802 26.5176 209.267 27.1305 208.717 27.7619C206.279 29.9336 205.197 30.5437 201.953 30.4762C199.762 29.2857 199.762 29.2857 198.143 27.4286C197.712 24.4761 197.887 22.2354 199.667 19.8095C202.972 17.0427 205.274 16.1366 209.574 16.7619ZM204.239 22.0952C203.736 22.5981 203.233 23.1009 202.715 23.619C204.601 23.9962 204.601 23.9962 206.526 24.3809C206.777 23.8781 207.029 23.3752 207.288 22.8571C205.846 22.3379 205.846 22.3379 204.239 22.0952Z" fill="black"/>
<path d="M395.19 16.3333C401.567 17.3766 406.128 20.9116 410.812 25.1429C411.249 25.5315 411.685 25.9202 412.134 26.3207C413.885 27.9667 415.201 29.3716 416.096 31.619C416.099 33.5238 416.099 33.5238 415.415 35.5059C414.208 39.2272 414.219 42.8723 414.099 46.7619C414.069 47.5407 414.04 48.3195 414.01 49.122C413.938 51.0336 413.873 52.9451 413.813 54.8571C412.393 55.303 412.393 55.303 410.765 55.619C409.101 54.5803 409.101 54.5803 407.383 53.0952C403.266 49.5666 400.352 48.5566 394.904 48.6666C393.576 48.6873 393.576 48.6873 392.222 48.7083C391.551 48.726 390.88 48.7437 390.188 48.7619C389.811 47.6304 389.811 47.6304 389.426 46.4762C389.945 45.6276 389.945 45.6276 390.474 44.7619C391.965 42.2393 392.259 40.2385 392.475 37.3333C392.223 36.579 391.972 35.8247 391.713 35.0476C392.088 33.4166 392.088 33.4166 393.237 32C395.719 31.5357 395.719 31.5357 398.667 31.4286C399.643 31.3853 400.62 31.3421 401.626 31.2976C402.378 31.278 403.131 31.2583 403.906 31.2381C404.775 34.0833 404.775 34.0833 403.811 35.9047C402.174 37.5412 400.722 38.065 398.571 38.8571C398.32 39.36 398.068 39.8628 397.809 40.3809C398.815 40.8838 399.821 41.3866 400.858 41.9047C401.031 41.4647 401.203 41.0247 401.382 40.5714C402.382 38.8571 402.382 38.8571 404.239 37.3809C406.277 35.7416 407.202 34.2483 408.478 32C408.981 31.7486 409.484 31.4971 410.003 31.2381C404.914 26.1507 398.004 24.2601 390.951 23.619C390.766 21.4052 390.827 20.063 391.808 18.0476C393.237 16.7619 393.237 16.7619 395.19 16.3333ZM406.526 41.4285C405.262 42.5814 405.262 42.5814 405.43 44.1904C407.307 45.4435 407.307 45.4435 409.241 46.4762C408.989 44.4647 408.738 42.4533 408.478 40.3809C407.547 40.297 407.547 40.297 406.526 41.4285Z" fill="black"/>
<path d="M86.1157 96.0001C87.3925 96.218 88.664 96.4708 89.9261 96.762C90.7835 100.381 90.7835 100.381 89.9261 102.095C90.9321 102.347 91.938 102.598 92.9745 102.857C92.3076 105.81 92.3076 105.81 91.4503 106.667C91.2722 108.075 91.1355 109.49 91.0216 110.905C90.9577 111.676 90.8939 112.447 90.8281 113.241C90.7819 113.837 90.7358 114.433 90.6882 115.048C91.6941 115.048 92.7001 115.048 93.7365 115.048C93.7189 114.185 93.7012 113.323 93.683 112.435C93.6687 111.306 93.6548 110.177 93.6413 109.048C93.6285 108.479 93.6157 107.91 93.6026 107.324C93.5892 105.835 93.6579 104.345 93.7365 102.857C95.2607 101.333 95.2607 101.333 96.8295 101.158C97.4278 101.169 98.0261 101.179 98.6425 101.191C99.2388 101.195 99.8351 101.2 100.449 101.205C102.119 101.333 102.119 101.333 104.406 102.095C104.924 101.954 105.443 101.812 105.978 101.667C106.708 101.502 106.708 101.502 107.454 101.333C109.244 103.123 109.536 104.348 110.217 106.762C110.514 107.802 110.514 107.802 110.818 108.863C110.965 109.396 111.113 109.928 111.265 110.476C111.394 109.944 111.524 109.412 111.657 108.863C111.842 108.17 112.027 107.476 112.217 106.762C112.394 106.073 112.571 105.383 112.753 104.673C113.551 102.857 113.551 102.857 115.158 101.851C115.634 101.68 116.109 101.509 116.599 101.333C117.102 101.836 117.605 102.339 118.123 102.857C118.017 104.255 118.017 104.255 117.596 105.935C117.443 106.548 117.29 107.161 117.132 107.793C116.287 110.843 115.359 113.854 114.361 116.857C114.168 117.461 113.976 118.065 113.779 118.688C113.586 119.268 113.394 119.849 113.197 120.447C113.027 120.965 112.857 121.484 112.682 122.019C111.921 123.656 111.151 124.591 109.74 125.714C107.382 125.907 105.777 126.019 103.644 124.953C103.895 123.695 104.147 122.438 104.406 121.143C105.915 120.766 105.915 120.766 107.454 120.381C107.065 115.477 106.136 111.269 104.406 106.667C103.651 107.044 103.651 107.044 102.882 107.429C101.604 107.216 100.332 106.965 99.0711 106.667C99.0888 107.41 99.1065 108.154 99.1247 108.92C99.1454 110.374 99.1454 110.374 99.1664 111.857C99.1841 112.821 99.2018 113.784 99.22 114.777C99.0711 117.333 99.0711 117.333 97.547 119.619C96.9497 119.478 96.3524 119.336 95.737 119.191C93.7587 118.659 93.7587 118.659 92.2124 119.619C88.1669 119.963 88.1669 119.963 86.3776 118.795C84.8487 116.613 85.0106 114.681 84.9249 112.048C84.8035 107.61 84.8035 107.61 83.0673 103.619C83.5703 103.116 84.0733 102.613 84.5915 102.095C84.8716 100.321 85.1268 98.5434 85.3536 96.762C85.6051 96.5106 85.8566 96.2591 86.1157 96.0001Z" fill="black"/>
<path d="M449.631 31.9999C448.824 34.5928 448.1 36.5817 446.583 38.8571C445.106 38.5714 445.106 38.5714 443.535 38.0952C443.157 37.3409 443.157 37.3409 442.772 36.5714C441.466 37.8776 441.835 39.6224 441.769 41.4077C441.721 42.6415 441.721 42.6415 441.672 43.9002C441.643 44.766 441.613 45.6317 441.582 46.5237C441.532 47.8268 441.532 47.8268 441.482 49.1562C441.401 51.3103 441.323 53.4646 441.248 55.619C439.815 56.0648 439.815 56.0648 438.2 56.3809C436.75 55.3422 436.75 55.3422 435.199 53.8571C430.737 50.1249 425.615 49.5237 419.91 49.5237C419.407 50.0266 418.904 50.5294 418.386 51.0475C417.631 51.0475 416.877 51.0475 416.099 51.0475C414.37 45.8597 413.559 41.3653 415.957 36.2856C417.125 34.038 417.691 33.4789 419.91 31.9999C421.893 31.8916 423.79 31.8567 425.768 31.9047C426.571 31.915 426.571 31.915 427.389 31.9255C428.707 31.9435 430.024 31.9708 431.341 31.9999C431.491 33.3166 431.632 34.6343 431.77 35.9523C431.849 36.686 431.929 37.4196 432.011 38.1755C432.101 40.3369 431.858 42.0984 431.341 44.1904C432.85 45.4475 434.359 46.7047 435.914 47.9999C435.805 46.5553 435.694 45.1109 435.58 43.6666C435.518 42.8622 435.456 42.0578 435.393 41.2291C435.213 38.8983 435.213 38.8983 434.648 36.8422C434.39 35.0476 434.39 35.0476 434.75 33.3243C435.914 31.9999 435.914 31.9999 438.483 31.5089C439.515 31.4511 440.548 31.4091 441.582 31.3809C442.101 31.3519 442.62 31.3229 443.155 31.2931C445.556 31.1826 447.332 31.2338 449.631 31.9999ZM420.672 38.0952C419.71 41.366 420.192 43.3358 421.434 46.4761C421.764 46.1147 422.094 45.7533 422.434 45.3809C423.72 44.1904 423.72 44.1904 426.007 43.4285C426.77 40.6984 426.77 40.6984 426.007 38.0952C424.246 38.0952 422.486 38.0952 420.672 38.0952Z" fill="black"/>
<path d="M167.659 32C166.641 36.255 166.641 36.255 164.61 37.5238C161.885 38.205 159.149 38.7636 156.385 39.2649C154.682 39.5495 154.682 39.5495 153.179 40.3809C153.829 40.4796 153.829 40.4796 154.492 40.5803C158.821 41.3678 162.333 42.4063 165.373 45.7143C170.617 53.6116 170.245 66.2879 169.945 75.4285C168.939 75.9314 167.933 76.4342 166.897 76.9523C164.633 74.6895 164.915 72.0503 164.658 69C163.896 58.3238 163.896 58.3238 158.514 49.5238C155.465 47.9649 153.269 47.9148 149.893 48.2857C148.671 48.4124 148.671 48.4124 147.425 48.5416C146.809 48.6143 146.193 48.687 145.558 48.7619C145.455 45.8691 145.542 43.7316 146.749 41.0952C147.83 38.4744 147.796 37.0599 147.083 34.2857C148.607 32 148.607 32 150.282 31.6585C150.962 31.6337 151.642 31.6089 152.343 31.5833C153.454 31.5376 153.454 31.5376 154.589 31.4911C155.365 31.4704 156.142 31.4498 156.942 31.4286C157.716 31.3961 158.489 31.3637 159.286 31.3303C165.033 31.125 165.033 31.125 167.659 32Z" fill="black"/>
<path d="M24.0057 95.762C25.326 95.8798 25.326 95.8798 26.673 96.0001C28.4026 98.5938 28.4757 99.9355 28.6735 103C28.7305 103.828 28.7875 104.656 28.8462 105.509C28.8835 106.142 28.9208 106.776 28.9593 107.429C29.4623 107.429 29.9652 107.429 30.4835 107.429C30.5208 106.859 30.5581 106.289 30.5966 105.702C30.6536 104.952 30.7105 104.202 30.7692 103.429C30.8223 102.686 30.8753 101.944 30.93 101.179C31.2339 99.1267 31.7295 97.7756 32.7697 96.0001C35.3418 95.9048 35.3418 95.9048 38.1043 96.0001C40.146 98.0412 39.8249 99.0769 39.8309 101.926C39.8339 103.243 39.8339 103.243 39.8369 104.588C39.831 105.51 39.8251 106.431 39.819 107.381C39.8249 108.3 39.8308 109.219 39.8369 110.165C39.8349 111.045 39.833 111.924 39.8309 112.83C39.8292 113.639 39.8275 114.447 39.8257 115.28C39.6285 117.333 39.6285 117.333 38.1043 119.619C37.0984 119.368 36.0924 119.116 35.056 118.857C34.553 117.097 34.05 115.337 33.5318 113.524C33.0288 115.284 32.5259 117.044 32.0076 118.857C30.6264 119.381 30.6264 119.381 28.9593 119.619C27.6733 118.81 27.6733 118.81 26.673 117.333C26.1491 114.905 26.1491 114.905 25.9109 112.762C25.7695 114.035 25.7695 114.035 25.6252 115.333C25.1488 118.095 25.1488 118.095 23.6247 119.619C22.0529 119.429 22.0529 119.429 20.5763 118.857C18.9194 115.544 19.6733 111.068 19.6713 107.429C19.662 106.503 19.6527 105.578 19.6431 104.625C19.6416 103.743 19.6401 102.861 19.6386 101.952C19.6355 101.14 19.6323 100.328 19.6291 99.4911C19.9301 96.2931 20.8928 96.0398 24.0057 95.762Z" fill="black"/>
<path d="M391.713 32C391.461 32.6443 391.21 33.2886 390.95 33.9524C390.066 36.536 390.066 36.536 390.188 39.1905C390.188 41.9048 390.188 41.9048 389.236 44.4762C388.513 47.9688 389.41 49.4203 390.98 52.503C391.845 54.3841 391.977 55.8557 391.713 57.9048C390.204 58.2819 390.204 58.2819 388.664 58.6667C388.332 58.1167 388 57.5667 387.658 57C387.204 56.2929 386.75 55.5858 386.283 54.8572C385.62 53.7965 385.62 53.7965 384.943 52.7143C383.442 50.8096 383.442 50.8096 380.996 50.7857C378.943 51.0259 376.958 51.3363 374.947 51.8096C375.518 46.7619 375.518 46.7619 377.233 44.1905C379.995 43.6667 379.995 43.6667 382.568 43.4286C382.859 42.1668 383.112 40.8956 383.33 39.6191C382.522 38.6392 382.522 38.6392 380.659 38.7828C379.89 38.7916 379.121 38.8004 378.328 38.8096C377.557 38.8164 376.786 38.8233 375.992 38.8304C375.395 38.8392 374.799 38.8481 374.185 38.8572C373.598 41.5304 373.428 43.4627 373.851 46.1905C374.189 48.8001 374.106 49.6848 372.66 51.8096C370.898 51.7619 370.898 51.7619 368.85 51.0477C366.767 47.6459 366.179 45.0585 366.888 41.134C367.833 37.8633 369.242 35.1856 371.958 33.0268C374.994 31.6269 377.735 31.5414 381.043 31.4286C381.648 31.3962 382.254 31.3638 382.877 31.3304C385.951 31.1921 388.71 31.2011 391.713 32Z" fill="black"/>
<path d="M191.284 31.9999C192.858 31.9293 192.858 31.9293 194.475 31.6666C195.434 31.5252 196.392 31.3837 197.38 31.238C197.38 34.5378 196.644 36.0154 195.094 38.8571C193.665 38.6666 193.665 38.6666 192.046 38.0952C191.093 36.5238 191.093 36.5238 190.521 35.0476C190.026 35.5897 190.026 35.5897 189.521 36.1428C186.503 38.9364 182.155 38.3298 178.277 38.494C177.54 38.6138 176.802 38.7336 176.042 38.8571C175.287 39.9885 175.287 39.9885 174.518 41.1428C174.942 41.1536 175.366 41.1644 175.804 41.1755C181.934 41.5586 185.932 43.8669 190.093 48.3333C191.979 50.6641 192.659 52.5755 192.808 55.619C189.444 55.619 188.872 55.0971 186.526 52.866C182.39 49.6036 178.907 49.2138 173.851 49.3809C173.254 49.3912 172.656 49.4015 172.041 49.4122C170.58 49.4389 169.119 49.4799 167.659 49.5238C169.183 41.9047 169.183 41.9047 169.641 39.872C170.066 38.0529 170.066 38.0529 169.516 36.0952C169.183 34.2857 169.183 34.2857 170.707 31.9999C172.523 31.6584 172.523 31.6584 174.777 31.5833C175.587 31.5528 176.397 31.5224 177.231 31.491C178.505 31.4601 178.505 31.4601 179.805 31.4285C180.651 31.3961 181.497 31.3637 182.369 31.3303C188.657 31.1247 188.657 31.1247 191.284 31.9999Z" fill="black"/>
<path d="M416.099 96.0001C420.732 95.2956 425.292 95.0067 429.245 97.6667C432.078 102.219 432.653 105.903 432.103 111.238C431.29 114.228 430.062 116.959 427.531 118.857C425.027 119.692 423.159 119.695 420.529 119.667C419.287 119.656 419.287 119.656 418.019 119.646C417.386 119.637 416.752 119.628 416.099 119.619C414.615 117.123 414.38 115.24 414.373 112.354C414.371 111.549 414.369 110.744 414.367 109.915C414.373 109.079 414.379 108.243 414.385 107.381C414.379 106.542 414.373 105.703 414.367 104.838C414.369 104.034 414.371 103.23 414.373 102.402C414.374 101.667 414.376 100.932 414.378 100.175C414.575 98.2858 414.575 98.2858 416.099 96.0001ZM419.91 100.571C419.91 105.097 419.91 109.623 419.91 114.286C424.237 114.799 424.237 114.799 425.893 113C426.893 110.987 427.075 109.668 427.054 107.429C427.06 106.784 427.066 106.14 427.072 105.476C426.696 103.174 426.212 102.148 424.482 100.571C422.973 100.571 421.464 100.571 419.91 100.571Z" fill="black"/>
<path d="M517.457 102.095C518.07 102.237 518.683 102.378 519.314 102.524C519.959 102.634 520.603 102.744 521.267 102.857C521.519 102.606 521.77 102.354 522.029 102.095C524.595 101.984 526.437 102.04 528.888 102.857C530.185 102.598 530.185 102.598 531.508 102.333C534.223 102.095 534.223 102.095 535.899 103.193C537.878 106.005 537.664 108.361 537.557 111.714C537.556 112.306 537.555 112.897 537.554 113.506C537.485 117.881 537.485 117.881 535.747 119.619C534.175 119.429 534.175 119.429 532.698 118.857C531.554 116.569 531.866 114.445 531.889 111.905C531.896 110.929 531.902 109.952 531.91 108.946C531.918 108.194 531.927 107.442 531.936 106.667C531.182 106.667 530.427 106.667 529.65 106.667C529.668 107.41 529.685 108.154 529.704 108.92C529.724 110.374 529.724 110.374 529.745 111.857C529.763 112.821 529.781 113.784 529.799 114.777C529.65 117.333 529.65 117.333 528.126 119.619C525.173 118.952 525.173 118.952 524.316 118.095C524.26 116.167 524.245 114.261 524.268 112.333C524.271 111.792 524.275 111.25 524.278 110.692C524.287 109.35 524.301 108.008 524.316 106.667C523.561 106.918 522.807 107.17 522.029 107.429C521.992 108.181 521.955 108.933 521.916 109.708C521.831 111.173 521.831 111.173 521.743 112.667C521.69 113.639 521.637 114.611 521.583 115.613C521.267 118.095 521.267 118.095 519.743 119.619C518.171 119.429 518.171 119.429 516.695 118.857C515.449 116.367 515.792 113.638 515.79 110.905C515.78 110.313 515.771 109.721 515.761 109.112C515.754 106.124 515.763 104.635 517.457 102.095Z" fill="black"/>
<path d="M158.336 95.9136C158.906 95.9176 159.477 95.9216 160.065 95.9257C160.681 95.9282 161.298 95.9306 161.933 95.9332C162.581 95.9396 163.229 95.9459 163.896 95.9525C164.547 95.9559 165.198 95.9594 165.868 95.9629C167.481 95.9719 169.094 95.9856 170.707 96.0001C171.184 97.4287 171.184 97.4287 171.469 99.0477C169.945 100.572 169.945 100.572 167.963 100.72C167.202 100.703 166.442 100.685 165.659 100.667C164.512 100.646 164.512 100.646 163.343 100.625C162.755 100.607 162.168 100.59 161.562 100.572C161.562 102.08 161.562 103.589 161.562 105.143C164.329 105.143 167.095 105.143 169.945 105.143C170.197 106.149 170.448 107.154 170.707 108.191C169.183 109.714 169.183 109.714 167.367 109.863C166.678 109.846 165.988 109.828 165.277 109.81C164.237 109.789 164.237 109.789 163.176 109.768C162.643 109.75 162.111 109.733 161.562 109.714C161.562 111.223 161.562 112.732 161.562 114.286C162.214 114.277 162.865 114.268 163.536 114.259C164.378 114.252 165.22 114.245 166.087 114.238C166.927 114.229 167.767 114.221 168.632 114.211C170.707 114.286 170.707 114.286 171.469 115.048C171.565 116.952 171.565 116.952 171.469 118.857C169.868 120.458 166.484 119.76 164.277 119.762C163.676 119.771 163.074 119.781 162.454 119.79C160.886 119.794 159.318 119.712 157.752 119.619C156.228 118.095 156.228 118.095 156.043 115.976C156.047 114.655 156.047 114.655 156.052 113.307C156.054 112.353 156.055 111.398 156.057 110.415C156.066 109.414 156.075 108.413 156.085 107.381C156.085 106.377 156.086 105.373 156.086 104.338C156.125 96.0557 156.125 96.0557 158.336 95.9136Z" fill="black"/>
<path d="M236.247 96.0001C237.524 96.218 238.795 96.4708 240.057 96.762C240.136 97.4848 240.214 98.2077 240.295 98.9525C240.58 101.555 240.58 101.555 243.106 102.857C242.669 105.042 242.449 105.799 240.819 107.429C240.634 109.288 240.634 109.288 240.724 111.333C240.745 112.374 240.745 112.374 240.766 113.435C240.783 113.967 240.801 114.499 240.819 115.048C241.825 115.048 242.831 115.048 243.868 115.048C243.85 114.185 243.832 113.323 243.814 112.435C243.8 111.306 243.786 110.177 243.772 109.048C243.76 108.479 243.747 107.91 243.734 107.324C243.72 105.835 243.789 104.345 243.868 102.857C244.371 102.354 244.874 101.852 245.392 101.333C244.889 100.831 244.386 100.328 243.868 99.8096C244.154 97.8096 244.154 97.8096 244.63 96.0001C246.516 96.3772 246.516 96.3772 248.44 96.762C248.692 97.5163 248.943 98.2706 249.202 99.0477C248.448 100.179 248.448 100.179 247.678 101.333C248.433 102.465 248.433 102.465 249.202 103.619C249.4 105.101 249.4 105.101 249.405 106.762C249.408 107.664 249.408 107.664 249.411 108.583C249.405 109.208 249.399 109.833 249.393 110.476C249.399 111.101 249.405 111.726 249.411 112.369C249.409 112.97 249.407 113.571 249.405 114.191C249.403 114.739 249.401 115.287 249.4 115.851C249.202 117.333 249.202 117.333 247.678 119.619C247.081 119.478 246.484 119.336 245.868 119.191C243.89 118.659 243.89 118.659 242.344 119.619C240.105 119.857 240.105 119.857 237.771 119.619C235.269 117.182 235.177 115.012 235.056 111.619C234.936 108.454 234.672 106.402 233.198 103.619C233.45 103.116 233.701 102.613 233.961 102.095C234.464 102.095 234.967 102.095 235.485 102.095C235.469 101.231 235.453 100.367 235.437 99.4763C235.485 96.762 235.485 96.762 236.247 96.0001Z" fill="black"/>
<path d="M352.846 96C355.275 97.6666 355.275 97.6666 356.657 99.8095C356.514 101.952 356.514 101.952 355.894 103.619C354.889 103.87 353.883 104.122 352.846 104.381C352.343 103.124 351.84 101.867 351.322 100.571C349.813 100.571 348.304 100.571 346.749 100.571C346.749 101.577 346.749 102.583 346.749 103.619C347.264 103.74 347.779 103.861 348.309 103.985C351.518 104.824 353.852 105.449 356.371 107.667C357.668 110.202 357.935 111.474 357.419 114.286C355.855 116.958 354.922 118.401 351.989 119.42C348.692 119.971 347.11 119.806 344.082 118.238C342.177 116.571 342.177 116.571 341.415 115.048C341.384 113.524 341.382 112 341.415 110.476C342.421 110.225 343.427 109.973 344.463 109.714C345.972 111.977 345.972 111.977 347.512 114.286C348.769 114.034 350.026 113.783 351.322 113.524C351.322 112.77 351.322 112.015 351.322 111.238C350.798 110.998 350.275 110.759 349.735 110.512C349.049 110.186 348.362 109.86 347.654 109.524C346.974 109.206 346.293 108.887 345.591 108.56C343.577 107.354 342.576 106.409 341.415 104.381C341.466 101.52 341.816 99.6595 343.272 97.1904C346.354 95.3117 349.341 95.3444 352.846 96Z" fill="black"/>
<path d="M182.901 96.0001C184.758 96.2858 184.758 96.2858 186.711 96.762C188.269 99.8782 187.614 103.909 187.616 107.333C187.625 108.173 187.635 109.013 187.644 109.878C187.646 111.091 187.646 111.091 187.649 112.327C187.652 113.068 187.655 113.808 187.658 114.571C187.469 116.621 186.995 117.866 185.949 119.619C185.21 119.478 184.471 119.336 183.71 119.191C182.94 119.081 182.17 118.971 181.376 118.857C181.125 119.109 180.873 119.36 180.614 119.619C177.329 119.557 175.78 119.358 173.422 117C171.863 113.446 171.689 110.492 172.231 106.667C173.776 103.228 173.776 103.228 176.042 102.095C180.263 101.919 180.263 101.919 182.138 102.857C182.123 102.009 182.107 101.16 182.091 100.286C182.138 97.5239 182.138 97.5239 182.901 96.0001ZM178.328 106.667C176.928 109.973 176.928 109.973 177.471 113.429C177.754 113.963 178.037 114.497 178.328 115.048C180.429 114.669 180.429 114.669 182.138 113.524C182.371 109.98 182.371 109.98 181.376 106.667C180.37 106.667 179.364 106.667 178.328 106.667Z" fill="black"/>
<path d="M501.454 102.095C501.972 102.237 502.491 102.378 503.025 102.524C505.345 103.003 505.345 103.003 507.931 102.286C510.599 102.095 510.599 102.095 512.79 103.857C515.31 107.044 515.594 109.529 515.171 113.524C513.979 116.589 513.352 117.784 510.599 119.619C507.788 119.333 507.788 119.333 505.264 118.857C505.295 119.706 505.327 120.554 505.359 121.429C505.264 124.191 505.264 124.191 503.74 125.714C502.168 125.524 502.168 125.524 500.691 124.952C499.084 121.738 499.788 117.485 499.786 113.952C499.777 113.07 499.768 112.188 499.758 111.278C499.757 110.433 499.755 109.588 499.754 108.717C499.751 107.941 499.747 107.165 499.744 106.365C499.929 104.381 499.929 104.381 501.454 102.095ZM506.026 106.667C504.878 108.963 505.129 110.997 505.264 113.524C505.767 114.027 506.27 114.53 506.788 115.048C508.395 114.805 508.395 114.805 509.836 114.286C510.605 111.058 510.605 111.058 509.884 107.905C509.617 107.496 509.35 107.088 509.074 106.667C508.068 106.667 507.063 106.667 506.026 106.667Z" fill="black"/>
<path d="M329.221 96.0001C330.479 96.2515 331.736 96.5029 333.032 96.762C333.032 104.053 333.032 111.345 333.032 118.857C329.983 119.619 329.983 119.619 327.697 118.857C326.974 119.046 326.251 119.234 325.506 119.429C323.125 119.619 323.125 119.619 320.981 117.857C318.049 114.255 318.139 111.199 318.552 106.667C320.096 103.228 320.096 103.228 322.363 102.095C326.583 101.919 326.583 101.919 328.459 102.857C328.443 102.009 328.428 101.16 328.412 100.286C328.459 97.5239 328.459 97.5239 329.221 96.0001ZM324.649 106.667C323.249 109.973 323.249 109.973 323.791 113.429C324.074 113.963 324.357 114.497 324.649 115.048C326.154 114.783 326.154 114.783 327.697 114.286C328.75 112.181 328.605 110.516 328.459 108.191C327.956 107.688 327.453 107.185 326.935 106.667C326.181 106.667 325.426 106.667 324.649 106.667Z" fill="black"/>
<path d="M359.705 96.0001C361.611 96.2382 361.611 96.2382 363.516 96.762C364.391 98.5115 364.512 99.8683 364.707 101.81C364.77 102.432 364.834 103.055 364.9 103.697C364.946 104.174 364.992 104.651 365.04 105.143C366.046 103.886 367.052 102.629 368.088 101.333C369.094 101.585 370.1 101.836 371.137 102.095C370.807 104.074 370.533 105.64 369.493 107.372C368.658 108.928 368.658 108.928 369.368 110.449C369.669 110.945 369.97 111.441 370.279 111.952C371.637 114.389 372.255 116.009 371.899 118.857C370.893 119.109 369.887 119.36 368.85 119.619C366.964 116.602 366.964 116.602 365.04 113.524C364.285 115.535 363.531 117.547 362.754 119.619C359.705 118.857 359.705 118.857 358.943 118.095C358.867 116.525 358.844 114.953 358.842 113.381C358.841 112.424 358.84 111.468 358.839 110.482C358.841 109.982 358.842 109.481 358.844 108.965C358.848 107.435 358.844 105.905 358.839 104.375C358.84 103.418 358.841 102.462 358.842 101.476C358.843 100.149 358.843 100.149 358.845 98.7947C358.943 96.762 358.943 96.762 359.705 96.0001Z" fill="black"/>
<path d="M229.388 101.333C232.186 103.444 233.096 104.632 233.791 108.101C233.85 109.178 233.89 110.256 233.913 111.333C233.945 111.879 233.977 112.424 234.01 112.985C234.132 115.897 234.092 117.136 232.436 119.619C231.98 119.493 231.525 119.368 231.055 119.238C228.777 118.718 227.138 118.849 224.863 119.381C222.529 119.619 222.529 119.619 220.767 118.762C219.139 116.954 218.777 115.956 218.719 113.524C219.386 111.476 219.386 111.476 221.005 109.714C223.258 108.941 225.509 108.521 227.864 108.191C227.864 107.436 227.864 106.682 227.864 105.905C225.024 106.757 225.024 106.757 223.291 108.952C222.285 108.952 221.279 108.952 220.243 108.952C219.671 107.238 219.671 107.238 219.481 105.143C222.415 101.501 224.758 100.863 229.388 101.333ZM224.053 112.762C224.305 113.516 224.556 114.271 224.815 115.048C225.821 114.796 226.827 114.545 227.864 114.286C227.864 113.532 227.864 112.777 227.864 112C226.179 111.92 226.179 111.92 224.053 112.762Z" fill="black"/>
<path d="M296.023 101.429C296.918 101.479 296.918 101.479 297.83 101.53C299.5 102.095 299.5 102.095 300.822 103.679C302.01 106.421 302.232 108.735 302.406 111.714C302.473 112.714 302.541 113.714 302.611 114.744C302.549 117.333 302.549 117.333 301.024 119.619C300.569 119.493 300.113 119.368 299.643 119.238C297.89 118.772 297.89 118.772 295.69 118.857C295.438 119.109 295.187 119.36 294.928 119.619C289.898 119.162 289.898 119.162 288.069 117.333C287.653 112.754 287.653 112.754 288.831 110.619C291.233 109.193 293.726 108.771 296.452 108.19C296.452 107.436 296.452 106.682 296.452 105.905C293.612 106.757 293.612 106.757 291.879 108.952C290.873 108.701 289.867 108.45 288.831 108.19C288.259 106.857 288.259 106.857 288.069 105.143C290.546 102.154 292.188 101.139 296.023 101.429ZM292.641 112.762C292.641 113.516 292.641 114.27 292.641 115.048C293.899 114.796 295.156 114.545 296.452 114.286C296.452 113.531 296.452 112.777 296.452 112C294.767 111.92 294.767 111.92 292.641 112.762Z" fill="black"/>
<path d="M443.534 102.095C445.301 103.536 446.33 104.639 447.345 106.667C447.377 108.19 447.376 109.715 447.345 111.238C447.345 111.992 447.345 112.747 447.345 113.524C446.953 116.029 446.238 117.226 444.296 118.857C442.084 119.963 440.659 119.903 438.2 119.619C435.584 118.055 433.849 116.473 432.865 113.524C432.586 109.264 432.705 106.525 435.151 102.857C437.805 100.678 440.35 101.299 443.534 102.095ZM438.962 105.905C438.71 106.91 438.459 107.916 438.2 108.952C439.709 108.952 441.218 108.952 442.772 108.952C442.269 107.947 441.766 106.941 441.248 105.905C440.494 105.905 439.739 105.905 438.962 105.905ZM438.2 112.762C438.451 113.516 438.703 114.27 438.962 115.048C441.226 114.787 441.226 114.787 443.534 114.286C443.786 113.783 444.037 113.28 444.296 112.762C442.284 112.762 440.273 112.762 438.2 112.762Z" fill="black"/>
<path d="M471.731 101.333C473.874 102.429 473.874 102.429 475.541 104.381C476.549 108.485 476.854 113.296 475.541 117.333C473.825 118.894 472.562 119.563 470.231 119.72C467.433 119.543 465.975 119.136 463.777 117.333C462.19 114.288 461.667 111.62 461.824 108.191C463.615 103.102 466.183 100.541 471.731 101.333ZM467.921 105.905C467.669 106.911 467.418 107.916 467.159 108.952C468.667 108.952 470.176 108.952 471.731 108.952C471.228 107.947 470.725 106.941 470.207 105.905C469.452 105.905 468.698 105.905 467.921 105.905ZM467.159 112.762C467.41 113.516 467.662 114.271 467.921 115.048C469.762 115.238 469.762 115.238 471.731 115.048C472.234 114.293 472.737 113.539 473.255 112.762C471.243 112.762 469.231 112.762 467.159 112.762Z" fill="black"/>
<path d="M549.465 102.095C551.917 104.418 553.046 106.351 553.275 109.714C553.092 115.809 553.092 115.809 551.519 117.881C549.325 119.539 546.798 119.708 544.13 119.619C541.905 118.7 540.751 118.025 539.477 115.982C538.173 112.736 538.283 109.328 538.795 105.905C542.057 101.614 544.265 100.84 549.465 102.095ZM544.892 105.905C544.389 106.91 543.886 107.916 543.368 108.952C544.877 108.952 546.386 108.952 547.94 108.952C547.689 107.947 547.437 106.941 547.178 105.905C546.424 105.905 545.669 105.905 544.892 105.905ZM543.368 112.762C544.122 113.893 544.122 113.893 544.892 115.048C547.888 114.61 547.888 114.61 550.227 112.762C547.963 112.762 545.7 112.762 543.368 112.762Z" fill="black"/>
<path d="M190.521 101.333C191.527 101.585 192.533 101.836 193.57 102.095C193.821 106.37 194.073 110.644 194.332 115.048C195.086 114.796 195.841 114.545 196.618 114.286C196.655 113.542 196.693 112.799 196.731 112.033C196.788 111.063 196.845 110.094 196.904 109.095C196.957 108.132 197.01 107.168 197.065 106.176C197.38 103.619 197.38 103.619 198.904 101.333C201.857 102 201.857 102 202.715 102.857C202.906 105.375 202.856 107.904 202.858 110.429C202.867 111.139 202.876 111.85 202.886 112.582C202.888 113.601 202.888 113.601 202.89 114.64C202.894 115.266 202.897 115.891 202.9 116.536C202.715 118.095 202.715 118.095 201.191 119.619C199.92 119.365 198.65 119.111 197.38 118.857C196.484 119.046 195.588 119.234 194.665 119.429C193.369 119.523 193.369 119.523 192.046 119.619C190.244 118.024 189.158 116.718 188.731 114.305C188.642 112.59 188.656 110.907 188.711 109.191C188.712 108.603 188.713 108.015 188.714 107.409C188.783 103.072 188.783 103.072 190.521 101.333Z" fill="black"/>
<path d="M304.834 101.333C305.353 101.475 305.872 101.616 306.406 101.762C308.73 102.235 308.73 102.235 311.36 101.572C313.979 101.333 313.979 101.333 315.626 102.488C317.512 105.034 317.539 106.904 317.694 110.048C317.755 111.037 317.816 112.026 317.879 113.045C317.794 115.669 317.423 117.292 316.266 119.619C313.312 118.952 313.312 118.952 312.455 118.095C312.275 116.171 312.134 114.262 312.026 112.333C311.994 111.792 311.961 111.25 311.927 110.692C311.846 109.35 311.769 108.009 311.693 106.667C310.939 106.667 310.184 106.667 309.407 106.667C309.369 107.41 309.332 108.154 309.294 108.92C309.208 110.374 309.208 110.374 309.121 111.857C309.068 112.821 309.015 113.784 308.96 114.777C308.645 117.333 308.645 117.333 307.121 119.619C305.644 119.333 305.644 119.333 304.072 118.857C302.775 116.264 303.169 113.382 303.167 110.524C303.158 109.896 303.149 109.268 303.139 108.621C303.137 108.016 303.136 107.412 303.134 106.789C303.131 106.236 303.128 105.683 303.125 105.113C303.31 103.619 303.31 103.619 304.834 101.333Z" fill="black"/>
<path d="M555.561 101.333C556.386 101.498 556.386 101.498 557.228 101.667C559.466 102.255 559.466 102.255 562.086 101.572C564.706 101.333 564.706 101.333 566.382 102.378C568.462 105.414 568.083 108.224 567.945 111.81C567.931 112.486 567.918 113.163 567.903 113.86C567.868 115.527 567.817 117.192 567.755 118.857C566.326 119.333 566.326 119.333 564.706 119.619C562.537 117.451 562.835 115.197 562.706 112.286C562.676 111.748 562.647 111.209 562.616 110.655C562.545 109.326 562.481 107.996 562.42 106.667C561.665 106.667 560.911 106.667 560.134 106.667C560.096 107.41 560.059 108.154 560.021 108.92C559.935 110.374 559.935 110.374 559.848 111.857C559.795 112.821 559.742 113.784 559.687 114.777C559.372 117.333 559.372 117.333 557.847 119.619C556.371 119.333 556.371 119.333 554.799 118.857C553.452 116.163 553.896 113.062 553.894 110.095C553.88 109.089 553.88 109.089 553.866 108.063C553.864 107.421 553.863 106.78 553.861 106.119C553.858 105.53 553.855 104.942 553.852 104.335C554.037 102.857 554.037 102.857 555.561 101.333Z" fill="black"/>
<path d="M267.492 101.333C268.231 101.475 268.969 101.616 269.731 101.762C270.501 101.872 271.271 101.982 272.064 102.095C272.316 101.844 272.567 101.592 272.827 101.333C274.589 101.095 274.589 101.095 276.637 101.333C278.763 103.046 279.578 104.059 280.447 106.667C280.539 108.443 280.581 110.222 280.59 112C280.601 112.943 280.612 113.886 280.623 114.857C280.447 117.333 280.447 117.333 278.923 119.619C275.97 118.952 275.97 118.952 275.113 118.095C274.933 116.171 274.791 114.262 274.684 112.333C274.651 111.792 274.618 111.25 274.584 110.692C274.503 109.35 274.427 108.009 274.351 106.667C273.596 106.918 272.842 107.17 272.064 107.429C272.027 108.181 271.99 108.933 271.951 109.708C271.866 111.173 271.866 111.173 271.779 112.667C271.726 113.639 271.673 114.611 271.618 115.613C271.302 118.095 271.302 118.095 269.778 119.619C268.159 119.333 268.159 119.333 266.73 118.857C266.56 116.794 266.403 114.731 266.254 112.667C266.204 112.087 266.155 111.508 266.105 110.911C265.859 107.342 266.081 104.704 267.492 101.333Z" fill="black"/>
<path d="M49.5356 101.333C50.3608 101.498 50.3608 101.498 51.2027 101.667C53.4402 102.255 53.4402 102.255 56.061 101.572C58.6807 101.333 58.6807 101.333 60.3537 102.408C62.3835 105.32 62.0902 107.873 61.9672 111.333C61.9598 111.961 61.9524 112.589 61.9448 113.235C61.8582 117.837 61.8582 117.837 60.9669 119.619C58.0138 118.952 58.0138 118.952 57.1565 118.095C56.9762 116.171 56.8351 114.262 56.7278 112.333C56.6949 111.792 56.662 111.25 56.6281 110.692C56.547 109.35 56.4703 108.009 56.3944 106.667C55.6399 106.667 54.8855 106.667 54.1081 106.667C54.0708 107.41 54.0335 108.154 53.995 108.92C53.9096 110.374 53.9096 110.374 53.8224 111.857C53.7693 112.821 53.7163 113.784 53.6616 114.777C53.3461 117.333 53.3461 117.333 51.8219 119.619C50.3453 119.333 50.3453 119.333 48.7735 118.857C47.4262 116.163 47.8707 113.062 47.8686 110.095C47.8546 109.089 47.8546 109.089 47.8403 108.063C47.8388 107.421 47.8373 106.78 47.8358 106.119C47.8327 105.53 47.8295 104.942 47.8263 104.335C48.0114 102.857 48.0114 102.857 49.5356 101.333Z" fill="black"/>
<path d="M493.832 101.333C496.448 102.898 498.183 104.479 499.167 107.429C499.549 112.091 499.226 114.367 496.118 118.095C493.442 119.879 492.411 119.997 489.26 119.619C486.799 118.165 485.68 117.033 484.401 114.476C483.605 110.334 483.816 107.226 486.164 103.667C488.664 101.167 490.331 100.93 493.832 101.333ZM489.26 106.667C489.218 107.777 489.189 108.889 489.164 110C489.147 110.619 489.129 111.238 489.111 111.875C489.097 113.686 489.097 113.686 490.784 115.048C491.538 115.048 492.293 115.048 493.07 115.048C494.442 111.311 494.442 111.311 493.927 107.476C493.644 106.958 493.362 106.439 493.07 105.905C490.841 105.734 490.841 105.734 489.26 106.667Z" fill="black"/>
<path d="M261.396 102.095C263.888 104.163 264.943 105.345 265.573 108.503C265.754 111.75 265.58 114.318 263.635 117C260.958 119.221 259.524 119.681 256.061 119.619C253.452 118.611 252.445 117.606 250.822 115.333C249.701 111.972 249.683 109.297 250.727 105.905C254.123 101.726 256.132 100.757 261.396 102.095ZM256.823 105.905C255.18 107.243 255.18 107.243 255.097 108.857C255.101 109.392 255.105 109.926 255.109 110.476C255.105 111.011 255.101 111.545 255.097 112.095C255.18 113.709 255.18 113.709 256.823 115.048C258.43 114.805 258.43 114.805 259.872 114.286C260.647 110.646 260.647 110.646 259.919 107.095C259.652 106.702 259.385 106.31 259.11 105.905C258.355 105.905 257.601 105.905 256.823 105.905Z" fill="black"/>
<path d="M135.652 102.095C137.897 103.926 139.302 105.397 139.67 108.321C139.905 114.285 139.905 114.285 137.89 117C135.214 119.22 133.78 119.681 130.317 119.619C127.593 118.409 126.651 117.549 124.982 115.048C124.121 111.246 124.086 108.696 125.744 105.143C128.997 101.383 130.766 101 135.652 102.095ZM131.079 105.905C129.435 107.243 129.435 107.243 129.352 108.857C129.356 109.391 129.36 109.926 129.364 110.476C129.36 111.01 129.356 111.545 129.352 112.095C129.435 113.709 129.435 113.709 131.079 115.048C132.686 114.805 132.686 114.805 134.127 114.286C134.902 110.646 134.902 110.646 134.175 107.095C133.908 106.702 133.641 106.309 133.365 105.905C132.611 105.905 131.856 105.905 131.079 105.905Z" fill="black"/>
<path d="M80.0191 102.095C80.7736 102.598 81.528 103.101 82.3054 103.619C82.5435 105.524 82.5435 105.524 82.3054 107.429C81.8024 107.932 81.2994 108.434 80.7812 108.952C81.1584 109.235 81.5357 109.518 81.9243 109.81C83.0675 111.238 83.0675 111.238 83.3532 113.476C83.0239 116.165 82.8848 117.137 80.7812 118.857C78.449 119.594 76.3593 119.875 73.9224 119.619C71.5885 117.952 71.5885 117.952 70.112 115.81C70.112 114.804 70.112 113.798 70.112 112.762C71.118 112.511 72.1239 112.259 73.1603 112C73.4904 112.503 73.8205 113.006 74.1606 113.524C74.7972 114.278 74.7972 114.278 75.4466 115.048C76.2011 115.048 76.9555 115.048 77.7329 115.048C77.7329 114.545 77.7329 114.042 77.7329 113.524C77.3104 113.33 76.888 113.137 76.4528 112.938C75.9007 112.675 75.3486 112.413 74.7798 112.143C74.2316 111.887 73.6834 111.63 73.1187 111.366C71.6362 110.476 71.6362 110.476 70.112 108.191C70.1596 105.905 70.1596 105.905 70.8741 103.619C73.8715 100.887 76.2095 101.178 80.0191 102.095ZM75.4466 105.143C75.4466 105.897 75.4466 106.652 75.4466 107.429C76.704 107.68 77.9615 107.932 79.257 108.191C78.2181 106.636 78.2181 106.636 76.9708 105.143C76.4678 105.143 75.9648 105.143 75.4466 105.143Z" fill="black"/>
<path d="M403.906 102.095C405.478 103.048 405.478 103.048 406.192 104.381C405.954 106.429 405.954 106.429 405.43 108.191C402.774 107.699 400.836 106.59 398.572 105.143C398.572 105.897 398.572 106.652 398.572 107.429C399.049 107.567 399.526 107.706 400.018 107.848C400.641 108.04 401.264 108.231 401.906 108.429C402.525 108.614 403.144 108.8 403.781 108.991C405.43 109.714 405.43 109.714 406.955 112C406.892 114.943 406.535 116.199 404.525 118.381C402.003 119.838 400.679 119.985 397.81 119.619C396.095 119.143 396.095 119.143 394.761 118.095C393.809 115.714 393.809 115.714 393.237 113.524C394.243 113.021 395.249 112.518 396.285 112C396.757 112.503 397.228 113.006 397.714 113.524C399.148 115.222 399.148 115.222 400.858 115.048C401.109 114.293 401.361 113.539 401.62 112.762C400.928 112.699 400.237 112.636 399.524 112.572C396.668 111.912 395.676 111.338 393.999 108.952C393.57 106.667 393.57 106.667 393.999 104.381C397.063 100.648 399.558 101.044 403.906 102.095Z" fill="black"/>
<path d="M214.908 102.095C216.813 103.429 216.813 103.429 217.957 105.143C217.766 107.238 217.766 107.238 217.195 108.952C216.189 108.952 215.183 108.952 214.146 108.952C213.643 108.198 213.14 107.444 212.622 106.667C211.616 106.918 210.61 107.17 209.574 107.429C209.368 110.972 209.368 110.972 210.336 114.286C211.815 114.075 211.815 114.075 213.384 113.524C213.887 112.77 214.39 112.015 214.908 111.238C215.914 111.49 216.92 111.741 217.957 112C217.814 114.524 217.814 114.524 217.195 117.333C215.16 119.135 213.775 119.562 211.098 119.952C208.26 119.539 207.037 118.549 205.001 116.571C203.404 113.378 203.814 109.373 204.239 105.905C207.486 101.548 209.698 100.928 214.908 102.095Z" fill="black"/>
<path d="M144.755 95.8513C146.293 95.9009 147.831 95.9505 149.369 96.0001C149.62 97.2573 149.872 98.5144 150.131 99.8096C149.377 100.061 148.622 100.312 147.845 100.572C147.342 100.32 146.839 100.069 146.321 99.8096C146.321 100.564 146.321 101.318 146.321 102.095C147.327 102.347 148.333 102.598 149.369 102.857C149.131 104.333 149.131 104.333 148.607 105.905C147.852 106.156 147.098 106.408 146.321 106.667C146.338 107.474 146.356 108.281 146.374 109.113C146.389 110.171 146.402 111.228 146.416 112.286C146.429 112.818 146.441 113.35 146.455 113.899C146.468 115.298 146.399 116.698 146.321 118.095C145.818 118.598 145.315 119.101 144.796 119.619C143.791 119.368 142.785 119.116 141.748 118.857C141.748 114.834 141.748 110.812 141.748 106.667C140.742 106.164 139.736 105.661 138.7 105.143C138.951 104.137 139.203 103.132 139.462 102.095C140.216 102.095 140.971 102.095 141.748 102.095C141.701 101.011 141.701 101.011 141.653 99.9049C141.757 97.3091 141.988 96.1291 144.755 95.8513Z" fill="black"/>
<path d="M448.869 101.333C450.286 101.45 450.286 101.45 451.918 102.095C452.882 104.003 452.882 104.003 453.632 106.333C453.888 107.104 454.143 107.875 454.406 108.67C454.683 109.564 454.683 109.564 454.966 110.476C455.096 109.944 455.225 109.412 455.359 108.863C455.544 108.17 455.728 107.476 455.919 106.762C456.096 106.073 456.272 105.383 456.455 104.673C457.252 102.857 457.252 102.857 458.86 101.851C459.335 101.68 459.811 101.51 460.301 101.333C460.804 101.836 461.307 102.339 461.825 102.857C460.97 108.239 459.675 115.673 455.728 119.619C454.188 119.498 454.188 119.498 452.68 118.857C451.712 116.852 450.957 115 450.251 112.905C450.053 112.352 449.855 111.8 449.651 111.231C449.114 109.715 448.591 108.201 448.107 106.667C447.93 106.15 447.753 105.634 447.571 105.102C447.345 103.619 447.345 103.619 448.869 101.333Z" fill="black"/>
<path d="M571.564 96.0001C572.57 96.0001 573.576 96.0001 574.613 96.0001C575.645 98.0639 575.424 99.8167 575.375 102.095C576.129 102.095 576.884 102.095 577.661 102.095C577.912 102.85 578.164 103.604 578.423 104.381C577.669 105.512 577.669 105.512 576.899 106.667C576.396 106.667 575.893 106.667 575.375 106.667C575.375 109.432 575.375 112.198 575.375 115.048C576.632 115.299 577.89 115.551 579.185 115.81C578.934 116.815 578.682 117.821 578.423 118.857C573.509 119.877 573.509 119.877 571.796 118.827C570.311 116.595 570.458 114.604 570.373 111.952C570.476 108.122 570.476 108.122 568.516 105.143C568.802 103.524 568.802 103.524 569.278 102.095C569.781 102.095 570.284 102.095 570.802 102.095C570.786 101.231 570.771 100.367 570.754 99.4763C570.802 96.762 570.802 96.762 571.564 96.0001Z" fill="black"/>
<path d="M387.902 96.0001C389.16 96.0001 390.417 96.0001 391.713 96.0001C393.364 99.3024 392.616 103.754 392.618 107.381C392.627 108.3 392.636 109.219 392.646 110.165C392.647 111.045 392.649 111.924 392.65 112.83C392.654 113.639 392.657 114.447 392.66 115.28C392.475 117.333 392.475 117.333 390.951 119.619C389.474 119.333 389.474 119.333 387.902 118.857C386.876 116.806 387.041 115.199 387.039 112.905C387.038 112.023 387.037 111.141 387.036 110.232C387.039 109.307 387.042 108.382 387.045 107.429C387.042 106.503 387.039 105.578 387.036 104.625C387.037 103.743 387.038 102.861 387.039 101.952C387.04 101.14 387.041 100.328 387.042 99.4911C387.14 97.5239 387.14 97.5239 387.902 96.0001Z" fill="black"/>
<path d="M382.996 95.9525C383.915 95.976 383.915 95.976 384.853 96.0001C386.088 99.7025 385.756 103.504 385.758 107.381C385.768 108.217 385.777 109.054 385.787 109.915C385.788 110.72 385.79 111.525 385.791 112.354C385.794 113.09 385.797 113.825 385.801 114.583C385.61 116.626 385.133 117.871 384.091 119.619C381.138 118.952 381.138 118.952 380.281 118.095C380.205 116.525 380.181 114.953 380.18 113.381C380.179 112.424 380.178 111.468 380.177 110.482C380.178 109.982 380.18 109.481 380.181 108.965C380.186 107.435 380.182 105.905 380.177 104.375C380.178 103.418 380.179 102.462 380.18 101.476C380.181 100.149 380.181 100.149 380.182 98.7947C380.317 96.0178 380.317 96.0178 382.996 95.9525Z" fill="black"/>
<path d="M478.591 96.0001C480.448 96.2858 480.448 96.2858 482.401 96.762C483.96 99.8782 483.304 103.909 483.306 107.333C483.315 108.173 483.325 109.013 483.334 109.878C483.336 111.091 483.336 111.091 483.339 112.327C483.342 113.068 483.345 113.808 483.348 114.571C483.159 116.621 482.685 117.866 481.639 119.619C478.686 118.952 478.686 118.952 477.828 118.095C477.752 116.59 477.729 115.082 477.727 113.574C477.726 112.656 477.725 111.737 477.724 110.79C477.727 109.822 477.73 108.854 477.733 107.857C477.73 106.892 477.727 105.927 477.724 104.933C477.725 104.013 477.726 103.094 477.727 102.146C477.728 101.297 477.729 100.448 477.73 99.5732C477.828 97.5239 477.828 97.5239 478.591 96.0001Z" fill="black"/>
<path d="M42.6768 96.0001C43.6828 96.0001 44.6887 96.0001 45.7251 96.0001C46.2015 97.8096 46.2015 97.8096 46.4872 99.8096C45.9843 100.312 45.4813 100.815 44.9631 101.333C45.466 101.836 45.969 102.339 46.4872 102.857C46.6845 104.405 46.6845 104.405 46.6897 106.286C46.6916 106.962 46.6936 107.637 46.6956 108.333C46.6897 109.041 46.6838 109.748 46.6778 110.476C46.6837 111.183 46.6895 111.891 46.6956 112.619C46.6937 113.295 46.6917 113.971 46.6897 114.667C46.6879 115.287 46.6862 115.908 46.6845 116.548C46.4872 118.095 46.4872 118.095 44.9631 119.619C43.3913 119.429 43.3913 119.429 41.9147 118.857C40.6177 116.264 41.012 113.382 41.0097 110.524C41.0004 109.896 40.9911 109.268 40.9815 108.621C40.98 108.016 40.9785 107.412 40.977 106.789C40.9739 106.236 40.9707 105.683 40.9675 105.113C41.1526 103.619 41.1526 103.619 42.6768 101.333C42.0659 99.298 42.0659 99.298 41.1526 97.5239C41.6556 97.021 42.1586 96.5182 42.6768 96.0001Z" fill="black"/>
<path d="M374.184 96.0001C375.442 96.2515 376.699 96.5029 377.995 96.762C377.995 98.5398 377.995 100.318 377.995 102.095C378.246 102.85 378.498 103.604 378.757 104.381C378.849 106.252 378.891 108.126 378.9 110C378.911 110.996 378.921 111.992 378.933 113.018C378.769 115.61 378.362 117.308 377.233 119.619C374.28 118.952 374.28 118.952 373.422 118.095C373.356 116.997 373.341 115.895 373.348 114.795C373.35 114.123 373.353 113.452 373.355 112.76C373.362 112.054 373.368 111.347 373.375 110.619C373.378 109.921 373.382 109.223 373.385 108.505C373.392 107.2 373.4 105.895 373.41 104.59C373.421 102.997 373.422 101.403 373.422 99.8096C373.654 98.5355 373.903 97.2642 374.184 96.0001Z" fill="black"/>
<path d="M64.7772 96.0001C66.0347 96.2515 67.2921 96.5029 68.5877 96.762C68.5877 98.0191 68.5877 99.2763 68.5877 100.572C68.0847 100.572 67.5817 100.572 67.0635 100.572C67.0635 101.074 67.0635 101.577 67.0635 102.095C67.5665 102.095 68.0694 102.095 68.5877 102.095C68.7819 104.586 68.9492 107.078 69.1116 109.571C69.1671 110.279 69.2226 110.987 69.2798 111.716C69.3215 112.396 69.3633 113.076 69.4063 113.777C69.4502 114.403 69.4941 115.03 69.5393 115.675C69.3497 117.333 69.3497 117.333 68.346 118.699C67.0635 119.619 67.0635 119.619 64.7772 119.619C63.8519 117.769 63.928 116.592 63.9407 114.527C63.9432 113.82 63.9456 113.114 63.9482 112.385C63.9545 111.645 63.9609 110.905 63.9675 110.143C63.971 109.406 63.9744 108.669 63.9779 107.909C63.9846 106.539 63.9928 105.169 64.0031 103.799C64.0125 102.469 64.0151 101.14 64.0151 99.8096C64.2521 98.5365 64.5035 97.2658 64.7772 96.0001Z" fill="black"/>
<path d="M430.579 37.3333C431.082 37.5847 431.585 37.8362 432.103 38.0952C431.852 39.8552 431.6 41.6152 431.341 43.4286C430.587 43.4286 429.832 43.4286 429.055 43.4286C429.558 41.4171 430.061 39.4057 430.579 37.3333Z" fill="black"/>
</svg>
