<svg width="48" height="48" viewBox="0 0 48 48" fill="none" xmlns="http://www.w3.org/2000/svg">
<circle cx="24" cy="24" r="24" fill="black"/>
<path d="M29 25.5C29 25.776 28.776 26 28.5 26H19.5C19.224 26 19 25.776 19 25.5C19 25.224 19.224 25 19.5 25H28.5C28.776 25 29 25.224 29 25.5ZM25.5 29H19.5C19.224 29 19 29.224 19 29.5C19 29.776 19.224 30 19.5 30H25.5C25.776 30 26 29.776 26 29.5C26 29.224 25.776 29 25.5 29ZM34 21.985V31.5C34 33.981 31.981 36 29.5 36H18.5C16.019 36 14 33.981 14 31.5V16.5C14 14.019 16.019 12 18.5 12H24.015C25.75 12 27.383 12.676 28.612 13.904L32.096 17.389C33.324 18.616 34 20.248 34 21.985ZM27.904 14.61C27.353 14.06 26.704 13.651 26 13.379V18.499C26 19.326 26.673 19.999 27.5 19.999H32.621C32.348 19.295 31.939 18.645 31.389 18.095L27.904 14.61ZM33 21.985C33 21.65 32.962 21.322 32.904 21H27.5C26.121 21 25 19.878 25 18.5V13.096C24.677 13.038 24.349 13 24.015 13H18.5C16.57 13 15 14.57 15 16.5V31.5C15 33.43 16.57 35 18.5 35H29.5C31.43 35 33 33.43 33 31.5V21.985Z" fill="white"/>
</svg>
