<svg width="45" height="45" viewBox="0 0 45 45" fill="none" xmlns="http://www.w3.org/2000/svg">
<g clip-path="url(#clip0_114_27)">
<path d="M40.3125 11.25H26.3812L23.8575 8.80688L32.0962 4.6875L22.7213 0H20.625V9.30938L18.6188 11.25H4.6875C2.10188 11.25 0 13.3538 0 15.9375V45H45V15.9375C45 13.3538 42.8981 11.25 40.3125 11.25ZM40.3125 13.125C41.8631 13.125 43.125 14.3869 43.125 15.9375V18.75H34.1287L28.3181 13.125H40.3125ZM22.5 1.98563L27.9037 4.6875L22.5 7.38937V1.98563ZM4.6875 13.125H16.6819L10.8713 18.75H1.875V15.9375C1.875 14.3869 3.13687 13.125 4.6875 13.125ZM26.25 43.125H18.75V31.875C18.75 29.8069 20.4319 28.125 22.5 28.125C24.5681 28.125 26.25 29.8069 26.25 31.875V43.125ZM28.125 43.125V31.875C28.125 28.7738 25.6012 26.25 22.5 26.25C19.3988 26.25 16.875 28.7738 16.875 31.875V43.125H1.875V20.625H11.6287L22.5 10.1025L33.3713 20.625H43.125V43.125H28.125ZM7.5 28.125H13.125V30H7.5V28.125ZM7.5 35.625H13.125V37.5H7.5V35.625ZM31.875 28.125H37.5V30H31.875V28.125ZM31.875 35.625H37.5V37.5H31.875V35.625ZM24.375 18.75C24.375 19.785 23.535 20.625 22.5 20.625C21.465 20.625 20.625 19.785 20.625 18.75C20.625 17.715 21.465 16.875 22.5 16.875C23.535 16.875 24.375 17.715 24.375 18.75Z" fill="black"/>
</g>
<defs>
<clipPath id="clip0_114_27">
<rect width="45" height="45" fill="white"/>
</clipPath>
</defs>
</svg>
