<svg width="100" height="88" viewBox="0 0 100 88" fill="none" xmlns="http://www.w3.org/2000/svg">
<path d="M67.3546 1.69231C75.2177 1.69231 83.0807 1.69231 91.182 1.69231C91.182 4.67077 91.182 7.64923 91.182 10.7179C90.0056 10.78 88.8293 10.8421 87.6173 10.906C87.5554 15.6839 87.4935 20.4619 87.4297 25.3846C89.2871 25.2915 89.2871 25.2915 91.182 25.1966C92.357 27.5518 91.3696 30.4608 91.3696 33.094C83.4447 33.094 75.5197 33.094 67.3546 33.094C67.3546 22.7315 67.3546 12.3689 67.3546 1.69231ZM69.9813 10.7179C69.9774 13.103 69.9735 15.4881 69.9695 17.9455C69.9678 18.6997 69.9661 19.4539 69.9644 20.2309C69.9637 20.9047 69.9637 20.9047 69.9633 21.5784C69.9631 21.8794 69.9624 22.1804 69.9614 22.4814C69.9601 22.9363 69.9599 23.3912 69.96 23.8461C69.9593 23.9811 69.9586 24.1161 69.9579 24.2551C69.9058 24.8728 69.9058 24.8728 70.1689 25.3846C70.6141 25.4025 71.0538 25.4082 71.4991 25.406C71.7111 25.406 71.7111 25.406 71.9275 25.406C72.3871 25.4059 72.8467 25.4045 73.3063 25.403C73.5893 25.4027 73.8722 25.4025 74.1552 25.4024C75.2068 25.4014 76.2584 25.3988 77.3101 25.3964C80.8333 25.3905 80.8333 25.3905 84.4278 25.3846C84.4278 20.5446 84.4278 15.7046 84.4278 10.7179C79.6604 10.7179 74.8931 10.7179 69.9813 10.7179Z" fill="black"/>
<path d="M5.2533 1.69231C13.1163 1.69231 20.9794 1.69231 29.0807 1.69231C29.0807 12.0549 29.0807 22.4174 29.0807 33.094C21.2176 33.094 13.3546 33.094 5.2533 33.094C5.2533 30.4879 5.2533 27.8817 5.2533 25.1966C6.49157 25.2586 7.72984 25.3207 9.00564 25.3846C9.00564 20.5446 9.00564 15.7046 9.00564 10.7179C7.2411 10.811 7.2411 10.811 5.44091 10.906C5.379 10.8439 5.31709 10.7819 5.2533 10.7179C5.2533 7.73949 5.2533 4.76103 5.2533 1.69231ZM12.0075 10.7179C12.0075 15.5579 12.0075 20.3979 12.0075 25.3846C16.713 25.3846 21.4184 25.3846 26.2664 25.3846C26.5441 24.8281 26.4785 24.264 26.4753 23.654C26.4754 23.4415 26.4754 23.4415 26.4754 23.2246C26.4753 22.765 26.4738 22.3054 26.4724 21.8458C26.4721 21.5624 26.4719 21.279 26.4718 20.9956C26.4708 19.9436 26.4682 18.8917 26.4658 17.8397C26.4619 15.4896 26.458 13.1394 26.454 10.7179C21.6867 10.7179 16.9193 10.7179 12.0075 10.7179Z" fill="black"/>
<path d="M21.576 49.8291C21.6379 49.6429 21.6998 49.4568 21.7636 49.265C23.0638 49.327 24.364 49.3891 25.7036 49.453C25.7036 50.4662 25.7029 50.9983 25.5159 51.8974C25.1966 55.2213 25.3376 58.584 25.4024 61.9172C25.4235 63.0164 25.4424 64.1156 25.4613 65.2148C25.466 65.4839 25.4707 65.753 25.4755 66.0221C25.5029 67.5733 25.5215 69.1237 25.5145 70.6752C25.5073 72.3038 25.5343 73.9311 25.5679 75.5593C25.5767 75.9896 25.5852 76.42 25.5934 76.8504C25.5962 76.9931 25.5989 77.1357 25.6018 77.2827C25.6073 77.5732 25.6129 77.8637 25.6185 78.1542C25.6329 78.8979 25.6484 79.6415 25.6659 80.385C25.6829 81.1164 25.6972 81.8478 25.7097 82.5793C25.7148 82.8554 25.7211 83.1315 25.7283 83.4076C25.7383 83.7897 25.7443 84.172 25.7502 84.5542C25.7548 84.771 25.7594 84.9877 25.7641 85.211C25.7036 85.7436 25.7036 85.7436 25.4507 86.0978C25.0256 86.3857 24.7038 86.3484 24.2026 86.3077C24.1777 86.14 24.1528 85.9722 24.1271 85.7994C24.0774 85.4693 24.0774 85.4693 24.0267 85.1325C23.9778 84.8053 23.9778 84.8053 23.9278 84.4714C23.8429 83.8951 23.8429 83.8951 23.7211 83.4674C23.5852 82.8723 23.6369 82.2779 23.6515 81.6707C23.6382 80.9584 23.5737 80.2589 23.5057 79.55C23.4501 78.9528 23.4032 78.3554 23.3583 77.7573C23.3429 77.5536 23.3274 77.3498 23.3114 77.1399C23.2797 76.7189 23.2484 76.2977 23.2176 75.8766C23.2022 75.675 23.1867 75.4735 23.1707 75.2658C23.1504 74.9931 23.1504 74.9931 23.1297 74.7149C23.1017 74.2702 23.1017 74.2702 22.8893 73.8974C23.0131 73.8974 23.137 73.8974 23.2645 73.8974C23.2034 73.7986 23.1422 73.6998 23.0792 73.5979C22.8344 73.0146 22.8469 72.5524 22.8527 71.9201C22.8539 71.685 22.8551 71.4499 22.8563 71.2077C22.861 70.8405 22.861 70.8405 22.8659 70.4658C22.8675 70.2181 22.8692 69.9704 22.871 69.7152C22.8754 69.1035 22.8816 68.492 22.8893 67.8804C22.7655 67.8183 22.6416 67.7562 22.5141 67.6923C22.5162 67.5193 22.5184 67.3462 22.5207 67.1679C22.5967 64.2968 22.5967 64.2968 22.1388 61.4872C21.9048 61.6468 21.9048 61.6468 21.6661 61.8096C21.4622 61.9476 21.2584 62.0855 21.0483 62.2276C20.8459 62.365 20.6435 62.5024 20.4349 62.644C19.2223 63.4136 17.7166 63.3095 16.3227 63.1795C15.1334 62.9033 14.2878 62.4245 13.5084 61.4872C13.4465 61.5492 13.3846 61.6113 13.3208 61.6752C13.333 62.1989 13.3569 62.7159 13.3912 63.2383C13.3994 63.3836 13.4076 63.5289 13.4161 63.6786C13.4578 64.3544 13.5313 64.9669 13.6961 65.6239C13.7604 66.163 13.791 66.704 13.825 67.2457C13.8363 67.3917 13.8475 67.5376 13.8591 67.6879C13.883 68.0648 13.8848 68.4429 13.8837 68.8205C13.7598 68.9446 13.636 69.0687 13.5084 69.1966C12.9573 69.1848 12.9573 69.1848 12.3827 69.0086C12.0352 68.5558 11.8199 68.2701 11.8199 67.6923C11.6961 67.6923 11.5722 67.6923 11.4447 67.6923C11.3518 67.5023 11.2589 67.3123 11.1632 67.1165C10.2857 65.5975 8.95564 64.8153 7.31707 64.3077C6.38667 64.0653 5.62838 64.1618 4.69043 64.3077C4.75234 63.6872 4.81426 63.0667 4.87805 62.4274C5.00187 62.4274 5.1257 62.4274 5.25328 62.4274C5.25328 61.993 5.25328 61.5586 5.25328 61.1111C5.37711 61.1111 5.50094 61.1111 5.62852 61.1111C5.62852 60.925 5.62852 60.7388 5.62852 60.547C6.43125 60.0107 7.24326 60.0809 8.16135 60.265C8.25422 60.296 8.34709 60.327 8.44277 60.359C8.44277 60.4831 8.44277 60.6072 8.44277 60.7351C8.57507 60.7811 8.70736 60.8272 8.84366 60.8746C9.45546 61.144 9.93646 61.4863 10.4714 61.8868C10.6545 62.023 10.8375 62.1592 11.0262 62.2996C11.1643 62.4038 11.3024 62.508 11.4447 62.6154C11.4179 62.0121 11.3903 61.4088 11.3626 60.8056C11.3545 60.6257 11.3465 60.4457 11.3382 60.2604C11.2907 59.24 11.2217 58.2265 11.128 57.2094C10.9735 55.0151 11.7268 53.0123 13.1684 51.3333C13.2615 51.234 13.3546 51.1346 13.4505 51.0322C13.7237 50.7529 13.7237 50.7529 14.0009 50.3227C14.3172 49.948 14.54 49.9231 15.0094 49.8291C15.0713 49.705 15.1332 49.5809 15.197 49.453C17.0938 49.0109 19.8001 48.9392 21.576 49.8291ZM15.2204 53.5075C14.9708 53.7699 14.9708 53.7699 15.0094 54.1539C14.8856 54.1539 14.7617 54.1539 14.6341 54.1539C14.1064 55.3771 14.0316 56.7353 14.4934 57.9851C14.8304 58.4916 15.1626 58.9686 15.5722 59.4188C15.6961 59.4188 15.8199 59.4188 15.9475 59.4188C15.9475 59.5429 15.9475 59.667 15.9475 59.7949C16.9036 60.3524 17.6263 60.6918 18.7617 60.547C19.4118 60.363 19.9521 60.1924 20.3096 59.5833C20.356 59.467 20.4024 59.3506 20.4503 59.2308C20.636 59.1687 20.8218 59.1067 21.0131 59.0427C21.74 57.7928 22.0006 56.5731 21.6397 55.18C21.2362 53.9947 20.7858 53.4511 19.6998 52.8376C18.1673 52.3256 16.4692 52.4645 15.2204 53.5075Z" fill="black"/>
<path d="M91.5572 49.641C91.6041 50.8867 91.6041 50.8867 91.182 51.5214C91.0642 52.0014 90.9651 52.4693 90.8811 52.9553C90.8566 53.0975 90.832 53.2396 90.8067 53.3861C90.5641 54.8976 90.5438 56.3844 90.5553 57.9116C90.5554 58.2159 90.5553 58.5202 90.555 58.8245C90.5549 59.6394 90.5581 60.4542 90.5621 61.2691C90.5656 62.1248 90.5659 62.9805 90.5666 63.8363C90.5683 65.4518 90.573 67.0672 90.5786 68.6827C90.5849 70.524 90.588 72.3652 90.5908 74.2065C90.5967 77.9895 90.6066 81.7725 90.6192 85.5556C90.1109 85.8102 89.6793 85.7558 89.1182 85.7436C89.1069 85.5715 89.0955 85.3994 89.0838 85.2221C89.0602 84.8869 89.0602 84.8869 89.0361 84.5449C89.0133 84.2111 89.0133 84.2111 88.99 83.8706C88.9661 83.3151 88.9661 83.3151 88.743 82.9231C88.7358 82.4145 88.7387 81.9095 88.7474 81.4012C88.7656 79.1754 88.6269 76.9639 88.485 74.7436C88.4587 74.3214 88.4324 73.8992 88.4062 73.477C88.3433 72.4711 88.2788 71.4653 88.2134 70.4596C88.1849 70.0215 88.1567 69.5833 88.1287 69.1451C87.9609 66.5536 87.7318 63.9676 87.4897 61.3822C87.4581 61.0429 87.4268 60.7036 87.3961 60.3643C87.2164 56.9414 87.2164 56.9414 86.1163 53.7778C85.3806 53.4091 84.4965 53.4763 83.6773 53.4017C83.6773 58.1797 83.6773 62.9576 83.6773 67.8803C83.3058 67.9734 83.3058 67.9734 82.9268 68.0684C82.5047 67.7276 82.5047 67.7276 82.1764 67.3162C82.1764 67.1921 82.1764 67.068 82.1764 66.9402C82.0526 66.9402 81.9287 66.9402 81.8011 66.9402C80.8631 65.9105 80.8631 65.9105 80.8631 65.4359C80.7392 65.4359 80.6154 65.4359 80.4878 65.4359C80.2167 65.1465 80.2167 65.1465 79.9015 64.7543C78.8853 63.5625 77.9196 62.7526 76.3602 62.4273C75.838 62.4593 75.3597 62.5069 74.8476 62.5919C73.9701 62.7267 73.123 62.8285 72.2327 62.8034C72.2327 62.3691 72.2327 61.9347 72.2327 61.4872C72.3565 61.4872 72.4803 61.4872 72.6079 61.4872C72.6079 61.239 72.6079 60.9908 72.6079 60.735C72.7317 60.735 72.8556 60.735 72.9831 60.735C72.9831 60.4868 72.9831 60.2386 72.9831 59.9829C73.5862 59.4188 73.5862 59.4188 74.1088 59.4188C74.1069 59.288 74.1049 59.1572 74.1029 59.0224C74.0951 58.4259 74.0902 57.8294 74.0854 57.2329C74.0822 57.0271 74.0791 56.8213 74.0759 56.6093C74.0643 54.691 74.0643 54.691 74.4841 53.7778C74.546 53.7157 74.6079 53.6537 74.6717 53.5897C74.4627 53.5665 74.2538 53.5432 74.0385 53.5192C73.3584 53.4017 73.3584 53.4017 72.9831 53.0256C72.9597 52.438 72.9597 52.438 72.9831 51.8974C73.107 51.8974 73.2308 51.8974 73.3584 51.8974C73.3584 51.5872 73.3584 51.2769 73.3584 50.9573C73.4822 50.9573 73.606 50.9573 73.7336 50.9573C73.7955 50.585 73.8574 50.2126 73.9212 49.8291C76.1376 49.8045 78.3539 49.78 80.5703 49.7555C81.5993 49.7441 82.6284 49.7328 83.6575 49.7214C84.6501 49.7104 85.6428 49.6994 86.6354 49.6884C87.0146 49.6843 87.3938 49.6801 87.773 49.6758C88.3031 49.67 88.8332 49.6641 89.3632 49.6583C89.5209 49.6565 89.6785 49.6548 89.8409 49.653C90.413 49.6467 90.9851 49.641 91.5572 49.641ZM77.2983 54.3419C76.3241 55.747 75.8312 57.3561 75.6098 59.0427C75.7435 59.0747 75.8773 59.1067 76.0151 59.1397C77.1267 59.4216 78.0162 59.751 78.9869 60.359C79.2655 60.452 79.2655 60.452 79.5497 60.547C79.5497 60.6711 79.5497 60.7952 79.5497 60.9231C79.6736 60.9231 79.7974 60.9231 79.925 60.9231C79.9753 61.0433 80.0256 61.1635 80.0774 61.2874C80.2789 61.7375 80.2789 61.7375 80.8631 61.8632C80.8901 61.9757 80.9172 62.0882 80.9451 62.2041C81.0862 62.754 81.3878 62.9934 81.8011 63.3675C81.8359 62.4106 81.7519 61.6457 81.5205 60.7115C81.3919 59.9767 81.3646 59.2466 81.3321 58.5021C81.2689 55.8706 81.2689 55.8706 80.1126 53.5897C78.9927 53.0285 78.0531 53.4451 77.2983 54.3419Z" fill="black"/>
<path d="M55.5347 1.69231C58.7542 1.69231 61.9737 1.69231 65.2908 1.69231C65.2908 11.9928 65.2908 22.2933 65.2908 32.906C62.3821 34.3636 58.7861 32.9712 55.5347 32.906C55.5347 22.6055 55.5347 12.305 55.5347 1.69231ZM58.5365 4.70086C58.2196 5.0185 58.3253 5.416 58.3251 5.85125C58.3246 6.05981 58.324 6.26837 58.3235 6.48325C58.3239 6.71407 58.3243 6.9449 58.3247 7.18271C58.3243 7.42423 58.324 7.66574 58.3237 7.91457C58.3228 8.5789 58.3231 9.24322 58.3237 9.90755C58.3242 10.6015 58.3238 11.2955 58.3235 11.9895C58.3231 13.1553 58.3236 14.3211 58.3245 15.4869C58.3255 16.836 58.3252 18.1851 58.3241 19.5342C58.3233 20.6909 58.3232 21.8475 58.3236 23.0041C58.3239 23.6957 58.324 24.3872 58.3234 25.0787C58.3227 25.8496 58.3236 26.6204 58.3247 27.3912C58.3243 27.6217 58.3239 27.8521 58.3235 28.0896C58.324 28.2986 58.3246 28.5077 58.3251 28.7232C58.3252 28.9056 58.3252 29.0881 58.3253 29.276C58.3205 29.7147 58.3205 29.7147 58.5365 30.0855C59.7748 30.0855 61.0131 30.0855 62.2889 30.0855C62.2889 21.7085 62.2889 13.3316 62.2889 4.70086C61.0506 4.70086 59.8123 4.70086 58.5365 4.70086Z" fill="black"/>
<path d="M31.7073 1.50427C34.8649 1.50427 38.0225 1.50427 41.2758 1.50427C41.4325 2.28953 41.4869 2.91415 41.4872 3.70554C41.4875 3.82983 41.4878 3.95413 41.4881 4.08219C41.4888 4.4972 41.4882 4.9122 41.4876 5.32721C41.4879 5.6253 41.4882 5.92339 41.4886 6.22148C41.4895 7.02988 41.4892 7.83828 41.4886 8.64668C41.4881 9.49206 41.4885 10.3374 41.4888 11.1828C41.4892 12.6016 41.4887 14.0205 41.4878 15.4393C41.4868 17.0817 41.4871 18.7242 41.4882 20.3666C41.489 21.7757 41.4891 23.1848 41.4887 24.5939C41.4884 25.436 41.4883 26.2782 41.4889 27.1203C41.4895 27.9111 41.4891 28.7019 41.488 29.4927C41.4878 29.7837 41.4879 30.0748 41.4883 30.3658C41.4888 30.7613 41.4881 31.1568 41.4872 31.5524C41.4871 31.7742 41.4871 31.9961 41.487 32.2246C41.4634 32.7179 41.4634 32.7179 41.2758 32.906C38.1182 32.906 34.9606 32.906 31.7073 32.906C31.7073 22.5434 31.7073 12.1809 31.7073 1.50427ZM34.7092 4.51282C34.3901 4.83262 34.4979 5.24123 34.4977 5.67876C34.4972 5.89076 34.4967 6.10275 34.4961 6.32117C34.4965 6.5558 34.4969 6.79044 34.4973 7.03219C34.4969 7.27767 34.4966 7.52315 34.4963 7.77607C34.4954 8.45127 34.4957 9.12646 34.4963 9.80165C34.4968 10.5067 34.4964 11.2118 34.4961 11.9169C34.4957 13.1012 34.4962 14.2855 34.4971 15.4699C34.4981 16.841 34.4978 18.2121 34.4967 19.5832C34.4959 20.7584 34.4958 21.9335 34.4963 23.1087C34.4965 23.8115 34.4966 24.5142 34.496 25.217C34.4953 26 34.4962 26.7831 34.4973 27.5661C34.4969 27.8007 34.4965 28.0354 34.4961 28.2771C34.4966 28.4891 34.4972 28.7011 34.4977 28.9195C34.4978 29.1049 34.4979 29.2903 34.4979 29.4813C34.475 29.8926 34.475 29.8926 34.7092 30.0855C35.9474 30.0855 37.1857 30.0855 38.4615 30.0855C38.4615 21.6465 38.4615 13.2075 38.4615 4.51282C37.2232 4.51282 35.9849 4.51282 34.7092 4.51282Z" fill="black"/>
<path d="M43.7148 1.50427C46.9344 1.56633 50.1539 1.62838 53.4709 1.69231C53.4752 5.7343 53.4786 9.77629 53.4807 13.8183C53.4816 15.6949 53.4829 17.5716 53.4851 19.4482C53.487 21.0832 53.4882 22.7183 53.4886 24.3533C53.4888 25.2196 53.4894 26.0859 53.4908 26.9522C53.492 27.7667 53.4924 28.5811 53.4922 29.3955C53.4922 29.6953 53.4926 29.9951 53.4933 30.2949C53.4942 30.7024 53.494 31.11 53.4935 31.5175C53.4937 31.7461 53.4938 31.9747 53.494 32.2103C53.4709 32.7179 53.4709 32.7179 53.2833 32.906C50.0638 32.906 46.8443 32.906 43.5272 32.906C43.5891 22.5434 43.651 12.1809 43.7148 1.50427ZM46.7167 4.51282C46.3976 4.83262 46.5054 5.24123 46.5053 5.67876C46.5047 5.89076 46.5042 6.10275 46.5037 6.32117C46.5041 6.5558 46.5044 6.79044 46.5048 7.03219C46.5045 7.27767 46.5042 7.52315 46.5038 7.77607C46.503 8.45127 46.5033 9.12646 46.5039 9.80165C46.5044 10.5067 46.5039 11.2118 46.5036 11.9169C46.5033 13.1012 46.5037 14.2855 46.5046 15.4699C46.5057 16.841 46.5053 18.2121 46.5043 19.5832C46.5034 20.7584 46.5033 21.9335 46.5038 23.1087C46.5041 23.8115 46.5041 24.5142 46.5035 25.217C46.5029 26 46.5038 26.7831 46.5048 27.5661C46.5044 27.8007 46.5041 28.0354 46.5037 28.2771C46.5042 28.4891 46.5047 28.7011 46.5053 28.9195C46.5053 29.1049 46.5054 29.2903 46.5055 29.4813C46.4826 29.8926 46.4826 29.8926 46.7167 30.0855C47.955 30.0855 49.1933 30.0855 50.4691 30.0855C50.4691 21.6465 50.4691 13.2075 50.4691 4.51282C49.2308 4.51282 47.9925 4.51282 46.7167 4.51282Z" fill="black"/>
<path d="M30.0187 49.641C33.1763 49.641 36.3339 49.641 39.5872 49.641C38.9236 51.6362 38.9236 51.6362 38.6726 52.1795C38.592 52.3627 38.592 52.3627 38.5099 52.5497C38.1735 52.9601 37.847 52.9648 37.3358 53.0256C37.4359 53.158 37.536 53.2903 37.6392 53.4267C38.5335 54.6146 39.4103 55.8129 40.2694 57.0266C40.5846 57.4719 40.8999 57.9138 41.2362 58.3435C41.4634 58.6667 41.4634 58.6667 41.4634 59.0427C41.5872 59.0427 41.711 59.0427 41.8386 59.0427C41.971 59.3114 41.971 59.3114 42.1061 59.5855C42.2241 59.8238 42.3421 60.062 42.4601 60.3002C42.547 60.4767 42.547 60.4767 42.6356 60.6568C42.9688 61.3281 43.3199 61.9785 43.7148 62.6154C43.7186 62.4021 43.7225 62.1888 43.7265 61.969C43.7287 61.849 43.7309 61.7291 43.7331 61.6054C43.7118 61.032 43.6449 60.4703 43.5786 59.9006C43.5241 59.3898 43.4838 58.8793 43.4465 58.367C43.4328 58.185 43.419 58.0029 43.4048 57.8154C43.3769 57.4428 43.3505 57.0702 43.3256 56.6975C43.1958 54.987 43.1958 54.987 42.5891 53.4017C42.2102 53.1636 42.2102 53.1636 41.8386 53.0256C41.9625 52.2063 42.2356 51.517 42.5891 50.7692C42.6817 50.5688 42.7743 50.3683 42.8698 50.1618C43.3395 49.641 43.3395 49.641 43.7344 49.5682C44.2189 49.5722 44.6874 49.6104 45.1688 49.6645C45.3354 49.6786 45.5021 49.6927 45.6738 49.7071C46.0847 49.7426 46.4944 49.7834 46.9043 49.8291C46.6237 53.588 46.6237 53.588 46.1538 54.5299C46.132 54.956 46.1225 55.3828 46.1183 55.8094C46.1167 55.9409 46.1151 56.0724 46.1135 56.2079C46.1103 56.4938 46.1074 56.7796 46.1049 57.0655C46.101 57.5174 46.0959 57.9693 46.0906 58.4213C46.0794 59.3805 46.0696 60.3398 46.06 61.2992C46.0489 62.4105 46.0372 63.5219 46.024 64.6332C46.019 65.0792 46.0151 65.5252 46.0112 65.9713C46.0081 66.2438 46.0049 66.5163 46.0017 66.7889C45.9982 67.1467 45.9982 67.1467 45.9946 67.5117C45.9662 68.0684 45.9662 68.0684 45.7786 68.4445C45.3682 68.515 45.3682 68.515 44.8405 68.4445C44.4487 68.1006 44.2057 67.7505 43.9024 67.3162C43.9024 67.1921 43.9024 67.068 43.9024 66.9402C43.7786 66.9402 43.6547 66.9402 43.5272 66.9402C43.2164 66.5142 43.2164 66.5142 42.8705 65.953C42.7563 65.7698 42.6422 65.5865 42.5246 65.3977C42.2763 64.9775 42.0479 64.5602 41.8386 64.1197C41.7148 64.1197 41.5909 64.1197 41.4634 64.1197C41.2003 63.7759 41.2003 63.7759 40.9122 63.3205C40.6268 62.8728 40.3462 62.4383 40.0203 62.019C39.7748 61.6752 39.7748 61.6752 39.7748 61.2992C39.651 61.2992 39.5272 61.2992 39.3996 61.2992C39.1771 61.0139 38.9687 60.7176 38.7664 60.4177C37.8362 59.1017 36.7612 57.947 35.6472 56.7863C35.4412 56.5715 35.4412 56.5715 35.231 56.3522C34.7569 55.8681 34.3374 55.4724 33.7711 55.094C32.6711 55.094 31.9127 55.6761 31.1444 56.4103C30.7604 57.0311 30.561 57.5879 30.3939 58.2906C30.5141 58.2976 30.6343 58.3047 30.7582 58.3119C31.8198 58.3928 32.6307 58.5653 33.5834 59.0427C33.5834 59.1668 33.5834 59.2909 33.5834 59.4188C33.7198 59.4644 33.8562 59.5099 33.9968 59.5569C35.4575 60.2194 36.4807 61.7098 37.3358 63.0267C37.4059 63.1338 37.4759 63.2409 37.5481 63.3512C38.0115 64.0957 38.2563 64.781 38.4615 65.6239C38.3377 65.748 38.2138 65.8721 38.0863 66C37.5342 65.9424 37.0834 65.8735 36.5853 65.6239C36.5853 65.4998 36.5853 65.3757 36.5853 65.2479C36.3996 65.2479 36.2138 65.2479 36.0225 65.2479C35.7462 64.9651 35.7462 64.9651 35.4479 64.578C34.1784 63.0678 32.3635 61.796 30.358 61.6238C29.5698 61.6143 28.8937 61.6123 28.1425 61.8633C27.8809 61.8758 27.6188 61.8793 27.3569 61.875C27.1208 61.8711 26.8848 61.8672 26.6416 61.8633C26.8841 60.066 27.3251 58.9643 28.7054 57.7265C28.8292 57.7265 28.953 57.7265 29.0806 57.7265C29.0876 57.606 29.0947 57.4856 29.1019 57.3614C29.183 56.292 29.3527 55.4888 29.8311 54.5299C29.9046 54.3787 29.9781 54.2274 30.0539 54.0716C30.1042 53.9746 30.1545 53.8777 30.2063 53.7778C30.3302 53.7778 30.454 53.7778 30.5816 53.7778C30.6435 53.5916 30.7054 53.4055 30.7692 53.2137C30.5254 53.1865 30.2816 53.1594 30.0304 53.1314C29.2917 53.0491 29.2917 53.0491 29.0806 52.8376C28.9027 51.4411 29.3061 51.0695 30.0187 49.641Z" fill="black"/>
<path d="M55.5073 49.6184C55.7469 49.6188 55.9864 49.6193 56.2332 49.6197C56.365 49.6197 56.4968 49.6196 56.6326 49.6196C57.0701 49.6197 57.5077 49.6212 57.9452 49.6227C58.2478 49.623 58.5504 49.6233 58.853 49.6235C59.6509 49.6242 60.4488 49.626 61.2468 49.6281C62.0604 49.63 62.874 49.6309 63.6877 49.6318C65.2852 49.6339 66.8828 49.6371 68.4803 49.641C68.3614 50.4144 68.2121 51.0502 67.8706 51.7564C67.7961 51.9164 67.7216 52.0764 67.6449 52.2412C67.2629 52.7787 67.0597 52.8715 66.4166 53.0256C65.7704 53.0673 65.1289 53.061 64.4818 53.0491C63.5821 53.0375 63.5821 53.0375 62.6642 53.0256C62.6642 54.8872 62.6642 56.7487 62.6642 58.6667C63.6006 59.1211 63.6006 59.1211 64.5386 59.5721C65.7297 60.1595 66.6338 60.8747 67.4954 61.8985C67.8157 62.2767 68.1301 62.6404 68.4803 62.9915C68.4803 63.1776 68.4803 63.3638 68.4803 63.5556C68.6042 63.5556 68.728 63.5556 68.8556 63.5556C69.6495 65.0742 70.4079 66.5971 71.0249 68.1977C71.0743 68.3214 71.1236 68.4451 71.1745 68.5726C71.4421 69.291 71.5293 69.7763 71.2946 70.5128C70.978 70.6538 70.978 70.6538 70.5441 70.7009C69.8411 70.3115 69.5023 69.8056 69.1136 69.1261C67.1579 65.7325 64.2629 62.965 60.4502 61.8111C58.4513 61.3586 56.7237 61.4364 54.7843 62.0513C54.3116 62.1894 53.8387 62.3265 53.3654 62.4626C53.1485 62.5273 52.9315 62.592 52.708 62.6587C52.1576 62.8034 52.1576 62.8034 51.5948 62.8034C51.5253 61.6661 51.5733 60.8099 52.1576 59.7949C53.4515 58.4349 55.2049 57.9658 57.0364 57.8918C58.2903 57.867 59.3902 57.9617 60.6004 58.2906C60.4098 57.2623 60.2119 56.2666 59.8499 55.2821C59.7261 55.2821 59.6023 55.2821 59.4747 55.2821C59.3098 54.9638 59.1449 54.6455 58.98 54.3272C58.5395 53.7048 58.1391 53.2751 57.3617 53.1398C56.8612 53.1044 56.3648 53.0898 55.8631 53.0844C55.522 53.0765 55.181 53.068 54.84 53.0587C54.6897 53.0566 54.5395 53.0545 54.3847 53.0523C54.0338 53.0256 54.0338 53.0256 53.8462 52.8376C53.7652 51.9451 53.9194 51.5053 54.409 50.7692C54.5366 50.4568 54.6622 50.1436 54.7843 49.8291C54.9719 49.641 54.9719 49.641 55.5073 49.6184Z" fill="black"/>
<path d="M61.5165 37.5349C62.647 38.2749 63.5973 39.5006 64.3527 40.6154C64.3527 40.7395 64.3527 40.8636 64.3527 40.9915C64.4765 40.9915 64.6004 40.9915 64.7279 40.9915C64.9698 41.3073 64.9698 41.3073 65.2204 41.7201C65.346 41.923 65.346 41.923 65.474 42.1299C65.666 42.4957 65.666 42.4957 65.666 42.8718C65.7899 42.8718 65.9137 42.8718 66.0413 42.8718C66.1102 43.006 66.1102 43.006 66.1805 43.1428C67.3249 45.2904 68.7638 47.2833 70.1688 49.265C70.045 49.4511 69.9212 49.6373 69.7936 49.8291C68.8472 49.7454 68.3969 49.3383 67.7298 48.7009C67.7298 48.5768 67.7298 48.4527 67.7298 48.3248C67.5691 48.2586 67.5691 48.2586 67.4052 48.1911C66.88 47.8922 66.5668 47.5351 66.1702 47.0791C66.0237 46.9113 65.8771 46.7436 65.7261 46.5708C65.5825 46.405 65.4388 46.2392 65.2908 46.0684C65.1626 45.9259 65.0344 45.7833 64.9024 45.6365C64.7868 45.5075 64.6712 45.3786 64.552 45.2457C64.4497 45.1318 64.3474 45.0179 64.242 44.9005C63.9775 44.5641 63.9775 44.5641 63.7789 44.1601C63.5521 43.7131 63.3069 43.6184 62.8518 43.4359C62.8518 43.3118 62.8518 43.1877 62.8518 43.0598C62.666 42.9978 62.4803 42.9357 62.2889 42.8718C62.2889 42.7477 62.2889 42.6236 62.2889 42.4957C62.1651 42.4569 62.0413 42.4182 61.9137 42.3782C61.4053 42.1447 61.0684 41.9121 60.6355 41.5673C59.3087 40.5551 58.3435 40.3442 56.6839 40.5544C56.5523 40.5745 56.4207 40.5947 56.2852 40.6154C56.2852 40.7395 56.2852 40.8636 56.2852 40.9915C56.1613 40.9915 56.0375 40.9915 55.9099 40.9915C55.8339 42.1498 55.8339 42.1498 56.0975 43.2479C56.5317 43.4878 56.5317 43.4878 57.0356 43.6239C57.1517 43.6705 57.2678 43.717 57.3874 43.765C58.0143 43.8389 58.5133 43.6465 59.0994 43.4359C59.1613 43.3118 59.2233 43.1877 59.287 43.0598C59.6271 42.8365 59.6271 42.8365 60.0375 42.6838C60.4384 42.7682 60.4384 42.7682 60.788 42.8718C60.7826 44.0418 60.5695 44.8397 59.8103 45.743C58.9493 46.5776 58.1212 46.8619 56.9301 46.9028C56.028 46.8713 55.3892 46.6801 54.5966 46.2564C54.5966 46.1323 54.5966 46.0082 54.5966 45.8803C54.4844 45.8416 54.3722 45.8028 54.2566 45.7628C53.6385 45.3734 53.52 45.0758 53.2833 44.3761C53.0268 42.6632 53.3606 41.5367 54.2727 40.0829C54.433 39.8811 54.433 39.8811 54.5966 39.6752C54.7204 39.6752 54.8443 39.6752 54.9718 39.6752C54.9718 39.5511 54.9718 39.427 54.9718 39.2991C55.0957 39.2991 55.2195 39.2991 55.3471 39.2991C55.3471 39.175 55.3471 39.0509 55.3471 38.9231C55.498 38.8727 55.6489 38.8222 55.8044 38.7703C55.963 38.6966 56.1217 38.6229 56.2852 38.547C56.3471 38.3609 56.409 38.1747 56.4728 37.9829C58.0508 37.2152 59.8513 36.8445 61.5165 37.5349Z" fill="black"/>
<path d="M14.0413 37.5316C15.3059 37.552 16.3317 37.9634 17.4484 38.547C17.4484 38.6711 17.4484 38.7952 17.4484 38.9231C17.5606 38.9502 17.6729 38.9774 17.7885 39.0053C18.6715 39.2329 19.0873 39.5956 19.6998 40.2393C19.9609 40.5065 20.2228 40.7728 20.4855 41.0385C20.612 41.1674 20.7385 41.2964 20.8688 41.4292C21.1835 41.7576 21.1835 41.7576 21.576 41.9316C21.576 42.0557 21.576 42.1798 21.576 42.3077C21.6998 42.3077 21.8237 42.3077 21.9512 42.3077C22.232 42.6233 22.4996 42.9507 22.7603 43.2831C23.208 43.8521 23.6412 44.3774 24.1638 44.8792C24.5779 45.3162 24.5779 45.3162 24.5779 45.8803C24.7017 45.8803 24.8255 45.8803 24.9531 45.8803C25.2639 46.2307 25.2639 46.2307 25.6098 46.6912C25.7239 46.8418 25.8381 46.9923 25.9557 47.1474C26.4706 47.852 26.6889 48.2014 26.6417 49.0769C25.526 49.007 24.6945 48.6733 23.8274 47.9487C23.8274 47.8246 23.8274 47.7005 23.8274 47.5727C23.6881 47.5222 23.5488 47.4718 23.4053 47.4199C22.9099 47.2055 22.5412 46.9909 22.1389 46.6325C22.1389 46.5084 22.1389 46.3843 22.1389 46.2564C21.9299 46.175 21.9299 46.175 21.7167 46.0919C20.5579 45.6168 20.5579 45.6168 20.111 45.1495C18.0002 43.1094 14.3107 42.0925 11.4564 42.0844C11.2022 42.0931 10.948 42.1035 10.6942 42.1197C10.5769 41.6731 10.5769 41.6731 10.5066 41.1795C10.6304 41.0554 10.7542 40.9313 10.8818 40.8034C10.995 40.4861 11.0954 40.1641 11.1867 39.8397C11.2356 39.6686 11.2844 39.4975 11.3347 39.3212C11.371 39.1898 11.4073 39.0584 11.4447 38.9231C11.5685 38.9231 11.6923 38.9231 11.8199 38.9231C11.878 38.7408 11.936 38.5585 11.9958 38.3707C12.3651 37.304 12.9952 37.5447 14.0413 37.5316Z" fill="black"/>
<path d="M67.3546 1.69231C75.2177 1.69231 83.0807 1.69231 91.182 1.69231C91.182 4.67077 91.182 7.64923 91.182 10.7179C89.9437 10.7179 88.7055 10.7179 87.4297 10.7179C87.4297 10.6559 87.4297 10.5938 87.4297 10.5299C88.606 10.5299 89.7824 10.5299 90.9944 10.5299C90.9944 7.67556 90.9944 4.8212 90.9944 1.88034C83.2552 1.88034 75.516 1.88034 67.5422 1.88034C67.5422 12.1188 67.5422 22.3573 67.5422 32.906C75.2814 32.906 83.0207 32.906 90.9944 32.906C90.9944 30.486 90.9944 28.066 90.9944 25.5726C89.818 25.5726 88.6417 25.5726 87.4297 25.5726C87.4297 25.5106 87.4297 25.4485 87.4297 25.3846C89.2871 25.2915 89.2871 25.2915 91.182 25.1966C92.357 27.5518 91.3696 30.4608 91.3696 33.094C83.4447 33.094 75.5197 33.094 67.3546 33.094C67.3546 22.7315 67.3546 12.3689 67.3546 1.69231Z" fill="black"/>
<path d="M49.0934 49.6043C49.2609 49.6055 49.4284 49.6067 49.601 49.608C49.8623 49.6127 49.8623 49.6127 50.129 49.6175C50.3054 49.6192 50.4819 49.6209 50.6636 49.6227C51.0991 49.6271 51.5345 49.6333 51.97 49.641C51.8413 50.5301 51.5077 51.2938 51.1492 52.109C51.0635 52.3108 51.0635 52.3108 50.9762 52.5166C50.9196 52.6463 50.863 52.776 50.8047 52.9096C50.7538 53.0267 50.703 53.1438 50.6505 53.2644C50.4443 53.6341 50.2304 53.8826 49.9062 54.1538C49.4533 54.1862 49.4533 54.1862 48.9681 53.9658C48.6212 53.5148 48.3883 53.0224 48.1473 52.5085C48.0439 52.3064 48.0439 52.3064 47.9384 52.1002C47.6467 51.5001 47.4633 51.0883 47.4833 50.4137C47.8162 49.6438 48.3388 49.5947 49.0934 49.6043Z" fill="black"/>
<path d="M91.3696 25.5727C91.3893 26.1265 91.3863 26.6609 91.3653 27.2135C91.3606 27.3758 91.3559 27.538 91.351 27.7052C91.3356 28.2245 91.3175 28.7436 91.2993 29.2628C91.2884 29.6144 91.2776 29.966 91.267 30.3176C91.2407 31.1805 91.212 32.0432 91.182 32.906C91.1201 32.906 91.0582 32.906 90.9944 32.906C90.9944 30.486 90.9944 28.066 90.9944 25.5727C89.8181 25.5727 88.6417 25.5727 87.4297 25.5727C87.4297 25.5106 87.4297 25.4485 87.4297 25.3846C88.0158 25.3422 88.6021 25.3043 89.1886 25.2671C89.3555 25.255 89.5224 25.2429 89.6943 25.2304C89.9337 25.2158 89.9337 25.2158 90.178 25.201C90.3991 25.1862 90.3991 25.1862 90.6246 25.1712C90.9944 25.1966 90.9944 25.1966 91.3696 25.5727Z" fill="black"/>
<path d="M91.3696 27.265C91.4315 27.265 91.4935 27.265 91.5572 27.265C91.5572 28.7542 91.5572 30.2434 91.5572 31.7778C91.4953 31.7778 91.4334 31.7778 91.3696 31.7778C91.3696 30.2885 91.3696 28.7993 91.3696 27.265Z" fill="black"/>
<path d="M60.4127 37.4188C61.3042 37.5 61.711 37.6685 62.2889 38.359C61.4922 38.359 61.0909 38.0172 60.4127 37.6068C60.4127 37.5448 60.4127 37.4827 60.4127 37.4188Z" fill="black"/>
<path d="M14.2589 50.0171C14.5065 50.0791 14.7542 50.1412 15.0094 50.2051C14.5141 50.5774 14.0187 50.9497 13.5084 51.3333C13.8837 50.5812 13.8837 50.5812 14.2589 50.0171Z" fill="black"/>
<path d="M91.3696 6.39316C91.4315 6.39316 91.4935 6.39316 91.5572 6.39316C91.5572 7.32393 91.5572 8.2547 91.5572 9.21367C91.4953 9.21367 91.4334 9.21367 91.3696 9.21367C91.3696 8.28291 91.3696 7.35214 91.3696 6.39316Z" fill="black"/>
<path d="M91.3696 9.40171C91.5572 10.1538 91.5572 10.1538 91.5572 10.1538L91.3696 9.40171Z" fill="black"/>
</svg>
