<svg width="45" height="45" viewBox="0 0 45 45" fill="none" xmlns="http://www.w3.org/2000/svg">
<g clip-path="url(#clip0_114_64)">
<path d="M41.7188 29.0625C41.7188 26.4769 39.615 24.375 37.0312 24.375C34.4475 24.375 32.3438 26.4769 32.3438 29.0625C32.3438 31.6481 34.4475 33.75 37.0312 33.75C39.615 33.75 41.7188 31.6481 41.7188 29.0625ZM34.2188 29.0625C34.2188 27.5119 35.4806 26.25 37.0312 26.25C38.5819 26.25 39.8438 27.5119 39.8438 29.0625C39.8438 30.6131 38.5819 31.875 37.0312 31.875C35.4806 31.875 34.2188 30.6131 34.2188 29.0625ZM22.5 33.75C25.0837 33.75 27.1875 31.6481 27.1875 29.0625C27.1875 26.4769 25.0837 24.375 22.5 24.375C19.9163 24.375 17.8125 26.4769 17.8125 29.0625C17.8125 31.6481 19.9163 33.75 22.5 33.75ZM22.5 26.25C24.0506 26.25 25.3125 27.5119 25.3125 29.0625C25.3125 30.6131 24.0506 31.875 22.5 31.875C20.9494 31.875 19.6875 30.6131 19.6875 29.0625C19.6875 27.5119 20.9494 26.25 22.5 26.25ZM45 40.3125V45H43.125V40.3125C43.125 38.7619 41.8631 37.5 40.3125 37.5H33.75C32.1994 37.5 30.9375 38.7619 30.9375 40.3125V45H29.0625V40.3125C29.0625 38.7619 27.8006 37.5 26.25 37.5H18.75C17.1994 37.5 15.9375 38.7619 15.9375 40.3125V45H14.0625V40.3125C14.0625 38.7619 12.8006 37.5 11.25 37.5H4.6875C3.13687 37.5 1.875 38.7619 1.875 40.3125V45H0V40.3125C0 37.7269 2.10375 35.625 4.6875 35.625H11.25C12.7894 35.625 14.145 36.3806 15 37.5281C15.855 36.3787 17.2106 35.625 18.75 35.625H26.25C27.7894 35.625 29.145 36.3806 30 37.5281C30.855 36.3787 32.2106 35.625 33.75 35.625H40.3125C42.8963 35.625 45 37.7269 45 40.3125ZM12.6562 29.0625C12.6562 26.4769 10.5525 24.375 7.96875 24.375C5.385 24.375 3.28125 26.4769 3.28125 29.0625C3.28125 31.6481 5.385 33.75 7.96875 33.75C10.5525 33.75 12.6562 31.6481 12.6562 29.0625ZM5.15625 29.0625C5.15625 27.5119 6.41813 26.25 7.96875 26.25C9.51937 26.25 10.7812 27.5119 10.7812 29.0625C10.7812 30.6131 9.51937 31.875 7.96875 31.875C6.41813 31.875 5.15625 30.6131 5.15625 29.0625ZM45 4.6875V28.2244C44.8125 26.6156 44.0475 24.9825 43.125 23.7563V4.6875C43.125 3.13687 41.8631 1.875 40.3125 1.875H4.6875C3.13687 1.875 1.875 3.13687 1.875 4.6875V23.7262C0.93 24.9713 0.181875 26.5838 0 28.2244V4.6875C0 2.10188 2.10375 0 4.6875 0H40.3125C42.8963 0 45 2.10188 45 4.6875Z" fill="black"/>
</g>
<defs>
<clipPath id="clip0_114_64">
<rect width="45" height="45" fill="white"/>
</clipPath>
</defs>
</svg>
