<svg width="45" height="45" viewBox="0 0 45 45" fill="none" xmlns="http://www.w3.org/2000/svg">
<g clip-path="url(#clip0_114_62)">
<path d="M13.125 26.25C17.2612 26.25 20.625 22.8862 20.625 18.75C20.625 14.6137 17.2612 11.25 13.125 11.25C8.98875 11.25 5.625 14.6137 5.625 18.75C5.625 22.8862 8.98875 26.25 13.125 26.25ZM13.125 13.125C16.2262 13.125 18.75 15.6488 18.75 18.75C18.75 21.8512 16.2262 24.375 13.125 24.375C10.0238 24.375 7.5 21.8512 7.5 18.75C7.5 15.6488 10.0238 13.125 13.125 13.125ZM26.25 43.125V44.0625C26.25 44.58 25.83 45 25.3125 45C24.795 45 24.375 44.58 24.375 44.0625V43.125C24.375 36.9206 19.3294 31.875 13.125 31.875C6.92062 31.875 1.875 36.9206 1.875 43.125V44.0625C1.875 44.58 1.455 45 0.9375 45C0.42 45 0 44.58 0 44.0625V43.125C0 35.8894 5.8875 30 13.125 30C20.3625 30 26.25 35.8894 26.25 43.125ZM36.6281 0H17.8125C13.9594 0 10.5994 2.6025 9.64125 6.32812C9.51188 6.83063 9.81375 7.34062 10.3162 7.47C10.8094 7.59937 11.3287 7.2975 11.4581 6.79688C12.2025 3.89812 14.8181 1.875 17.8144 1.875H36.63C40.2487 1.875 43.1925 4.81875 43.1925 8.43375L43.1269 25.3125C43.1269 28.9312 40.1831 31.875 36.5644 31.875H35.6269V29.0625C35.6269 27.5119 34.365 26.25 32.8144 26.25H29.0644C27.5138 26.25 26.2519 27.5119 26.2519 29.0625V30.9375C26.2519 32.4881 27.5138 33.75 29.0644 33.75H36.5644C41.2162 33.75 45.0019 29.9644 45.0019 25.3162L45.0675 8.4375C45.0675 3.78562 41.28 0 36.6281 0ZM33.75 31.875H29.0625C28.545 31.875 28.125 31.4531 28.125 30.9375V29.0625C28.125 28.5469 28.545 28.125 29.0625 28.125H32.8125C33.33 28.125 33.75 28.5469 33.75 29.0625V31.875Z" fill="black"/>
</g>
<defs>
<clipPath id="clip0_114_62">
<rect width="45" height="45" fill="white"/>
</clipPath>
</defs>
</svg>
