<?xml version="1.0" encoding="UTF-8"?>
<svg xmlns="http://www.w3.org/2000/svg" id="Capa_35" data-name="Capa 35" viewBox="0 0 24 24">
  <path d="m24,0H0v24h24V0Zm-4.597,10.455c-1.52,0-2.927-.486-4.077-1.311v5.954c0,2.974-2.419,5.393-5.393,5.393-1.149,0-2.215-.362-3.091-.977-1.391-.976-2.302-2.591-2.302-4.416,0-2.974,2.419-5.393,5.393-5.393.247,0,.489.02.727.052v2.991c-.23-.072-.473-.114-.727-.114-1.358,0-2.463,1.105-2.463,2.463,0,.946.536,1.767,1.32,2.18.342.18.73.283,1.142.283,1.327,0,2.409-1.055,2.458-2.37l.005-11.742h2.93c0,.254.025.502.069.743.207,1.116.87,2.074,1.787,2.673.639.417,1.402.66,2.22.66v2.93Zm0,0"/>
</svg>
